<?xml version="1.0" encoding="UTF-8" standalone="no"?>
<!DOCTYPE svg PUBLIC "-//W3C//DTD SVG 1.1//EN"
 "http://www.w3.org/Graphics/SVG/1.1/DTD/svg11.dtd">
<!-- Generated by graphviz version 13.1.2 (20250808.2320)
 -->
<!-- Title: G Pages: 1 -->
<svg width="2354pt" height="1407pt"
 viewBox="0.00 0.00 2354.00 1407.00" xmlns="http://www.w3.org/2000/svg" xmlns:xlink="http://www.w3.org/1999/xlink">
<g id="graph0" class="graph" transform="scale(1 1) rotate(0) translate(21.6 1385.01)">
<title>G</title>
<polygon fill="#111111" stroke="none" points="-21.6,21.6 -21.6,-1385.01 2332.1,-1385.01 2332.1,21.6 -21.6,21.6"/>
<!-- Config/db.ts -->
<g id="node1" class="node">
<title>Config/db.ts</title>
<path fill="none" stroke="#c6c5fe" d="M945.83,-902.88C945.83,-902.88 873.67,-902.88 873.67,-902.88 869.71,-902.88 865.75,-898.92 865.75,-894.96 865.75,-894.96 865.75,-887.04 865.75,-887.04 865.75,-883.08 869.71,-879.13 873.67,-879.13 873.67,-879.13 945.83,-879.13 945.83,-879.13 949.79,-879.13 953.75,-883.08 953.75,-887.04 953.75,-887.04 953.75,-894.96 953.75,-894.96 953.75,-898.92 949.79,-902.88 945.83,-902.88"/>
<text xml:space="preserve" text-anchor="middle" x="909.75" y="-885.58" font-family="Arial" font-size="14.00" fill="#c6c5fe">Config/db.ts</text>
</g>
<!-- Models/AuthToken.ts -->
<g id="node2" class="node">
<title>Models/AuthToken.ts</title>
<path fill="none" stroke="#ff6c60" d="M1224.71,-572.88C1224.71,-572.88 1098.54,-572.88 1098.54,-572.88 1094.58,-572.88 1090.62,-568.92 1090.62,-564.96 1090.62,-564.96 1090.62,-557.04 1090.62,-557.04 1090.62,-553.08 1094.58,-549.13 1098.54,-549.13 1098.54,-549.13 1224.71,-549.13 1224.71,-549.13 1228.67,-549.13 1232.62,-553.08 1232.62,-557.04 1232.62,-557.04 1232.62,-564.96 1232.62,-564.96 1232.62,-568.92 1228.67,-572.88 1224.71,-572.88"/>
<text xml:space="preserve" text-anchor="middle" x="1161.62" y="-555.58" font-family="Arial" font-size="14.00" fill="#ff6c60">Models/AuthToken.ts</text>
</g>
<!-- Config/db.ts&#45;&gt;Models/AuthToken.ts -->
<g id="edge1" class="edge">
<title>Config/db.ts&#45;&gt;Models/AuthToken.ts</title>
<path fill="none" stroke="#757575" d="M917.31,-878.85C939.83,-837.3 1014.38,-701.35 1046,-663 1072.78,-630.52 1110.17,-599.27 1134.87,-580.11"/>
<polygon fill="#757575" stroke="#757575" points="1136.97,-582.92 1142.78,-574.07 1132.71,-577.36 1136.97,-582.92"/>
</g>
<!-- Models/Court.ts -->
<g id="node3" class="node">
<title>Models/Court.ts</title>
<path fill="none" stroke="#ff6c60" d="M1868.58,-833.88C1868.58,-833.88 1773.17,-833.88 1773.17,-833.88 1769.21,-833.88 1765.25,-829.92 1765.25,-825.96 1765.25,-825.96 1765.25,-818.04 1765.25,-818.04 1765.25,-814.08 1769.21,-810.13 1773.17,-810.13 1773.17,-810.13 1868.58,-810.13 1868.58,-810.13 1872.54,-810.13 1876.5,-814.08 1876.5,-818.04 1876.5,-818.04 1876.5,-825.96 1876.5,-825.96 1876.5,-829.92 1872.54,-833.88 1868.58,-833.88"/>
<text xml:space="preserve" text-anchor="middle" x="1820.88" y="-816.58" font-family="Arial" font-size="14.00" fill="#ff6c60">Models/Court.ts</text>
</g>
<!-- Config/db.ts&#45;&gt;Models/Court.ts -->
<g id="edge2" class="edge">
<title>Config/db.ts&#45;&gt;Models/Court.ts</title>
<path fill="none" stroke="#757575" d="M953.99,-890.34C1076.21,-888.04 1434.51,-878.28 1729.25,-840 1737.23,-838.96 1745.57,-837.64 1753.81,-836.19"/>
<polygon fill="#757575" stroke="#757575" points="1754.27,-839.66 1763.47,-834.41 1753,-832.78 1754.27,-839.66"/>
</g>
<!-- Models/CourtAvailability.ts -->
<g id="node4" class="node">
<title>Models/CourtAvailability.ts</title>
<path fill="none" stroke="#ff6c60" d="M2078.83,-873.88C2078.83,-873.88 1920.42,-873.88 1920.42,-873.88 1916.46,-873.88 1912.5,-869.92 1912.5,-865.96 1912.5,-865.96 1912.5,-858.04 1912.5,-858.04 1912.5,-854.08 1916.46,-850.13 1920.42,-850.13 1920.42,-850.13 2078.83,-850.13 2078.83,-850.13 2082.79,-850.13 2086.75,-854.08 2086.75,-858.04 2086.75,-858.04 2086.75,-865.96 2086.75,-865.96 2086.75,-869.92 2082.79,-873.88 2078.83,-873.88"/>
<text xml:space="preserve" text-anchor="middle" x="1999.62" y="-856.58" font-family="Arial" font-size="14.00" fill="#ff6c60">Models/CourtAvailability.ts</text>
</g>
<!-- Config/db.ts&#45;&gt;Models/CourtAvailability.ts -->
<g id="edge3" class="edge">
<title>Config/db.ts&#45;&gt;Models/CourtAvailability.ts</title>
<path fill="none" stroke="#757575" d="M922.33,-903.3C944.05,-925.37 993.49,-971 1046,-988 1190.45,-1034.77 1578.62,-1009.12 1729.25,-990 1796.3,-981.49 1815.46,-981.02 1876.5,-952 1915.35,-933.53 1954.33,-902 1977.47,-881.59"/>
<polygon fill="#757575" stroke="#757575" points="1979.58,-884.4 1984.68,-875.11 1974.9,-879.19 1979.58,-884.4"/>
</g>
<!-- Models/CourtPricing.ts -->
<g id="node5" class="node">
<title>Models/CourtPricing.ts</title>
<path fill="none" stroke="#ff6c60" d="M2067.96,-1044.88C2067.96,-1044.88 1931.29,-1044.88 1931.29,-1044.88 1927.33,-1044.88 1923.38,-1040.92 1923.38,-1036.96 1923.38,-1036.96 1923.38,-1029.04 1923.38,-1029.04 1923.38,-1025.08 1927.33,-1021.13 1931.29,-1021.13 1931.29,-1021.13 2067.96,-1021.13 2067.96,-1021.13 2071.92,-1021.13 2075.88,-1025.08 2075.88,-1029.04 2075.88,-1029.04 2075.88,-1036.96 2075.88,-1036.96 2075.88,-1040.92 2071.92,-1044.88 2067.96,-1044.88"/>
<text xml:space="preserve" text-anchor="middle" x="1999.62" y="-1027.58" font-family="Arial" font-size="14.00" fill="#ff6c60">Models/CourtPricing.ts</text>
</g>
<!-- Config/db.ts&#45;&gt;Models/CourtPricing.ts -->
<g id="edge4" class="edge">
<title>Config/db.ts&#45;&gt;Models/CourtPricing.ts</title>
<path fill="none" stroke="#757575" d="M919.16,-903.11C938.18,-929.3 987.41,-990.81 1046,-1015 1200.84,-1078.94 1707,-1052.97 1911.62,-1039.34"/>
<polygon fill="#757575" stroke="#757575" points="1911.65,-1042.84 1921.39,-1038.68 1911.18,-1035.86 1911.65,-1042.84"/>
</g>
<!-- Models/Customer.ts -->
<g id="node6" class="node">
<title>Models/Customer.ts</title>
<path fill="none" stroke="#ff6c60" d="M2277.08,-596.88C2277.08,-596.88 2156.17,-596.88 2156.17,-596.88 2152.21,-596.88 2148.25,-592.92 2148.25,-588.96 2148.25,-588.96 2148.25,-581.04 2148.25,-581.04 2148.25,-577.08 2152.21,-573.13 2156.17,-573.13 2156.17,-573.13 2277.08,-573.13 2277.08,-573.13 2281.04,-573.13 2285,-577.08 2285,-581.04 2285,-581.04 2285,-588.96 2285,-588.96 2285,-592.92 2281.04,-596.88 2277.08,-596.88"/>
<text xml:space="preserve" text-anchor="middle" x="2216.62" y="-579.58" font-family="Arial" font-size="14.00" fill="#ff6c60">Models/Customer.ts</text>
</g>
<!-- Config/db.ts&#45;&gt;Models/Customer.ts -->
<g id="edge5" class="edge">
<title>Config/db.ts&#45;&gt;Models/Customer.ts</title>
<path fill="none" stroke="#757575" d="M913.53,-903.24C923.47,-944.08 961.29,-1076.66 1046,-1140 1233.24,-1280.01 1907.26,-1443.81 2086.75,-1294 2195.19,-1203.5 2212.6,-721.07 2215.19,-608.5"/>
<polygon fill="#757575" stroke="#757575" points="2218.69,-608.76 2215.4,-598.69 2211.69,-608.61 2218.69,-608.76"/>
</g>
<!-- Models/Notification.ts -->
<g id="node7" class="node">
<title>Models/Notification.ts</title>
<path fill="none" stroke="#ff6c60" d="M1701.08,-411.88C1701.08,-411.88 1571.92,-411.88 1571.92,-411.88 1567.96,-411.88 1564,-407.92 1564,-403.96 1564,-403.96 1564,-396.04 1564,-396.04 1564,-392.08 1567.96,-388.13 1571.92,-388.13 1571.92,-388.13 1701.08,-388.13 1701.08,-388.13 1705.04,-388.13 1709,-392.08 1709,-396.04 1709,-396.04 1709,-403.96 1709,-403.96 1709,-407.92 1705.04,-411.88 1701.08,-411.88"/>
<text xml:space="preserve" text-anchor="middle" x="1636.5" y="-394.58" font-family="Arial" font-size="14.00" fill="#ff6c60">Models/Notification.ts</text>
</g>
<!-- Config/db.ts&#45;&gt;Models/Notification.ts -->
<g id="edge6" class="edge">
<title>Config/db.ts&#45;&gt;Models/Notification.ts</title>
<path fill="none" stroke="#757575" d="M919.08,-879.03C938.11,-851.11 985.09,-778.94 1010,-712 1037.24,-638.81 989.59,-594.01 1046,-540 1083.62,-503.98 1226.43,-513.38 1277.25,-502 1397.44,-475.08 1425.28,-459.68 1543.75,-426 1555.82,-422.57 1568.79,-418.89 1581.06,-415.41"/>
<polygon fill="#757575" stroke="#757575" points="1581.97,-418.79 1590.63,-412.7 1580.06,-412.06 1581.97,-418.79"/>
</g>
<!-- Models/Payment.ts -->
<g id="node8" class="node">
<title>Models/Payment.ts</title>
<path fill="none" stroke="#ff6c60" d="M2274.83,-304.88C2274.83,-304.88 2158.42,-304.88 2158.42,-304.88 2154.46,-304.88 2150.5,-300.92 2150.5,-296.96 2150.5,-296.96 2150.5,-289.04 2150.5,-289.04 2150.5,-285.08 2154.46,-281.13 2158.42,-281.13 2158.42,-281.13 2274.83,-281.13 2274.83,-281.13 2278.79,-281.13 2282.75,-285.08 2282.75,-289.04 2282.75,-289.04 2282.75,-296.96 2282.75,-296.96 2282.75,-300.92 2278.79,-304.88 2274.83,-304.88"/>
<text xml:space="preserve" text-anchor="middle" x="2216.62" y="-287.58" font-family="Arial" font-size="14.00" fill="#ff6c60">Models/Payment.ts</text>
</g>
<!-- Config/db.ts&#45;&gt;Models/Payment.ts -->
<g id="edge7" class="edge">
<title>Config/db.ts&#45;&gt;Models/Payment.ts</title>
<path fill="none" stroke="#757575" d="M922.41,-903.12C941.33,-922.93 979.64,-963.67 1010,-1000 1026.87,-1020.19 1022.9,-1034.39 1046,-1047 1147.5,-1102.41 2003.75,-1134.52 2086.75,-1054 2129.83,-1012.21 2108.98,-573.42 2122.75,-515 2140.85,-438.22 2182.77,-353.94 2203.53,-314.99"/>
<polygon fill="#757575" stroke="#757575" points="2206.51,-316.83 2208.18,-306.37 2200.35,-313.5 2206.51,-316.83"/>
</g>
<!-- Models/Reservation.ts -->
<g id="node9" class="node">
<title>Models/Reservation.ts</title>
<path fill="none" stroke="#ff6c60" d="M2066.83,-572.88C2066.83,-572.88 1932.42,-572.88 1932.42,-572.88 1928.46,-572.88 1924.5,-568.92 1924.5,-564.96 1924.5,-564.96 1924.5,-557.04 1924.5,-557.04 1924.5,-553.08 1928.46,-549.13 1932.42,-549.13 1932.42,-549.13 2066.83,-549.13 2066.83,-549.13 2070.79,-549.13 2074.75,-553.08 2074.75,-557.04 2074.75,-557.04 2074.75,-564.96 2074.75,-564.96 2074.75,-568.92 2070.79,-572.88 2066.83,-572.88"/>
<text xml:space="preserve" text-anchor="middle" x="1999.62" y="-555.58" font-family="Arial" font-size="14.00" fill="#ff6c60">Models/Reservation.ts</text>
</g>
<!-- Config/db.ts&#45;&gt;Models/Reservation.ts -->
<g id="edge8" class="edge">
<title>Config/db.ts&#45;&gt;Models/Reservation.ts</title>
<path fill="none" stroke="#757575" d="M950.95,-903.32C1094.13,-944.53 1586.18,-1063.04 1876.5,-843 1962.49,-777.82 1988.84,-639.62 1996.11,-584.46"/>
<polygon fill="#757575" stroke="#757575" points="1999.57,-585 1997.3,-574.66 1992.62,-584.16 1999.57,-585"/>
</g>
<!-- Models/ReservationPlayer.ts -->
<g id="node10" class="node">
<title>Models/ReservationPlayer.ts</title>
<path fill="none" stroke="#ff6c60" d="M2302.58,-547.88C2302.58,-547.88 2130.67,-547.88 2130.67,-547.88 2126.71,-547.88 2122.75,-543.92 2122.75,-539.96 2122.75,-539.96 2122.75,-532.04 2122.75,-532.04 2122.75,-528.08 2126.71,-524.13 2130.67,-524.13 2130.67,-524.13 2302.58,-524.13 2302.58,-524.13 2306.54,-524.13 2310.5,-528.08 2310.5,-532.04 2310.5,-532.04 2310.5,-539.96 2310.5,-539.96 2310.5,-543.92 2306.54,-547.88 2302.58,-547.88"/>
<text xml:space="preserve" text-anchor="middle" x="2216.62" y="-530.58" font-family="Arial" font-size="14.00" fill="#ff6c60">Models/ReservationPlayer.ts</text>
</g>
<!-- Config/db.ts&#45;&gt;Models/ReservationPlayer.ts -->
<g id="edge9" class="edge">
<title>Config/db.ts&#45;&gt;Models/ReservationPlayer.ts</title>
<path fill="none" stroke="#757575" d="M925.19,-903.35C946.45,-922.22 986.23,-960.24 1010,-1000 1034.67,-1041.26 1007.54,-1073.16 1046,-1102 1092.29,-1136.72 2044.58,-1181.62 2086.75,-1142 2180.54,-1053.87 2042.82,-664.87 2122.75,-564 2125.75,-560.21 2129.24,-556.92 2133.08,-554.07"/>
<polygon fill="#757575" stroke="#757575" points="2134.67,-557.21 2141.32,-548.96 2130.97,-551.26 2134.67,-557.21"/>
</g>
<!-- Models/User.ts -->
<g id="node11" class="node">
<title>Models/User.ts</title>
<path fill="none" stroke="#ff6c60" d="M1455.58,-572.88C1455.58,-572.88 1365.42,-572.88 1365.42,-572.88 1361.46,-572.88 1357.5,-568.92 1357.5,-564.96 1357.5,-564.96 1357.5,-557.04 1357.5,-557.04 1357.5,-553.08 1361.46,-549.13 1365.42,-549.13 1365.42,-549.13 1455.58,-549.13 1455.58,-549.13 1459.54,-549.13 1463.5,-553.08 1463.5,-557.04 1463.5,-557.04 1463.5,-564.96 1463.5,-564.96 1463.5,-568.92 1459.54,-572.88 1455.58,-572.88"/>
<text xml:space="preserve" text-anchor="middle" x="1410.5" y="-555.58" font-family="Arial" font-size="14.00" fill="#ff6c60">Models/User.ts</text>
</g>
<!-- Config/db.ts&#45;&gt;Models/User.ts -->
<g id="edge10" class="edge">
<title>Config/db.ts&#45;&gt;Models/User.ts</title>
<path fill="none" stroke="#757575" d="M916.21,-878.91C931.76,-845.79 979.46,-752.63 1046,-701 1072.18,-680.68 1271.41,-609.39 1363.32,-577.1"/>
<polygon fill="#757575" stroke="#757575" points="1364.27,-580.48 1372.54,-573.87 1361.95,-573.87 1364.27,-580.48"/>
</g>
<!-- Models/UserAchievement.ts -->
<g id="node12" class="node">
<title>Models/UserAchievement.ts</title>
<path fill="none" stroke="#ff6c60" d="M1721.33,-715.88C1721.33,-715.88 1551.67,-715.88 1551.67,-715.88 1547.71,-715.88 1543.75,-711.92 1543.75,-707.96 1543.75,-707.96 1543.75,-700.04 1543.75,-700.04 1543.75,-696.08 1547.71,-692.13 1551.67,-692.13 1551.67,-692.13 1721.33,-692.13 1721.33,-692.13 1725.29,-692.13 1729.25,-696.08 1729.25,-700.04 1729.25,-700.04 1729.25,-707.96 1729.25,-707.96 1729.25,-711.92 1725.29,-715.88 1721.33,-715.88"/>
<text xml:space="preserve" text-anchor="middle" x="1636.5" y="-698.58" font-family="Arial" font-size="14.00" fill="#ff6c60">Models/UserAchievement.ts</text>
</g>
<!-- Config/db.ts&#45;&gt;Models/UserAchievement.ts -->
<g id="edge11" class="edge">
<title>Config/db.ts&#45;&gt;Models/UserAchievement.ts</title>
<path fill="none" stroke="#757575" d="M927.77,-878.81C952.55,-861.65 1000.58,-830.63 1046,-814 1209.96,-753.96 1412.1,-725.38 1532.03,-712.8"/>
<polygon fill="#757575" stroke="#757575" points="1532.28,-716.3 1541.87,-711.79 1531.56,-709.33 1532.28,-716.3"/>
</g>
<!-- Models/UserStats.ts -->
<g id="node13" class="node">
<title>Models/UserStats.ts</title>
<path fill="none" stroke="#ff6c60" d="M1697.33,-757.88C1697.33,-757.88 1575.67,-757.88 1575.67,-757.88 1571.71,-757.88 1567.75,-753.92 1567.75,-749.96 1567.75,-749.96 1567.75,-742.04 1567.75,-742.04 1567.75,-738.08 1571.71,-734.13 1575.67,-734.13 1575.67,-734.13 1697.33,-734.13 1697.33,-734.13 1701.29,-734.13 1705.25,-738.08 1705.25,-742.04 1705.25,-742.04 1705.25,-749.96 1705.25,-749.96 1705.25,-753.92 1701.29,-757.88 1697.33,-757.88"/>
<text xml:space="preserve" text-anchor="middle" x="1636.5" y="-740.58" font-family="Arial" font-size="14.00" fill="#ff6c60">Models/UserStats.ts</text>
</g>
<!-- Config/db.ts&#45;&gt;Models/UserStats.ts -->
<g id="edge12" class="edge">
<title>Config/db.ts&#45;&gt;Models/UserStats.ts</title>
<path fill="none" stroke="#757575" d="M954.22,-882.21C1028.02,-867.31 1182.54,-836.13 1313.25,-810 1398.64,-792.93 1496.79,-773.46 1562.11,-760.52"/>
<polygon fill="#757575" stroke="#757575" points="1562.5,-764.01 1571.63,-758.64 1561.14,-757.15 1562.5,-764.01"/>
</g>
<!-- Models/AuthToken.ts&#45;&gt;Models/User.ts -->
<g id="edge48" class="edge">
<title>Models/AuthToken.ts&#45;&gt;Models/User.ts</title>
<path fill="none" stroke="#757575" d="M1233.04,-554.84C1268.51,-554 1311.19,-554.06 1345.69,-555.01"/>
<polygon fill="#757575" stroke="#757575" points="1345.43,-558.5 1355.54,-555.31 1345.65,-551.5 1345.43,-558.5"/>
</g>
<!-- Models/Court.ts&#45;&gt;Models/CourtAvailability.ts -->
<g id="edge49" class="edge">
<title>Models/Court.ts&#45;&gt;Models/CourtAvailability.ts</title>
<path fill="none" stroke="#757575" d="M1876.83,-828.14C1902.55,-833.23 1932.7,-840.21 1956.57,-846.64"/>
<polygon fill="#757575" stroke="#757575" points="1955.36,-849.93 1965.93,-849.23 1957.23,-843.19 1955.36,-849.93"/>
</g>
<!-- Models/Court.ts&#45;&gt;Models/CourtPricing.ts -->
<g id="edge50" class="edge">
<title>Models/Court.ts&#45;&gt;Models/CourtPricing.ts</title>
<path fill="none" stroke="#757575" d="M1835.16,-834.09C1867.55,-868.84 1950.41,-967.7 1984.07,-1011.71"/>
<polygon fill="#757575" stroke="#757575" points="1981.11,-1013.6 1989.92,-1019.49 1986.71,-1009.39 1981.11,-1013.6"/>
</g>
<!-- Models/Court.ts&#45;&gt;Models/Reservation.ts -->
<g id="edge51" class="edge">
<title>Models/Court.ts&#45;&gt;Models/Reservation.ts</title>
<path fill="none" stroke="#757575" d="M1828.38,-809.65C1853.3,-768.05 1943.28,-634.7 1981.38,-582.25"/>
<polygon fill="#757575" stroke="#757575" points="1984.07,-584.51 1987.18,-574.38 1978.43,-580.36 1984.07,-584.51"/>
</g>
<!-- Models/Court.ts&#45;&gt;Models/UserStats.ts -->
<g id="edge52" class="edge">
<title>Models/Court.ts&#45;&gt;Models/UserStats.ts</title>
<path fill="none" stroke="#757575" d="M1776.21,-809.66C1742.34,-796.95 1696.32,-777.52 1666.77,-763.31"/>
<polygon fill="#757575" stroke="#757575" points="1668.55,-760.28 1658.03,-759 1665.45,-766.56 1668.55,-760.28"/>
</g>
<!-- Models/CourtAvailability.ts&#45;&gt;Models/Court.ts -->
<g id="edge53" class="edge">
<title>Models/CourtAvailability.ts&#45;&gt;Models/Court.ts</title>
<path fill="none" stroke="#757575" d="M1914.24,-849.65C1896.83,-845.76 1879.21,-841.48 1864.09,-837.41"/>
<polygon fill="#757575" stroke="#757575" points="1865.1,-834.06 1854.53,-834.76 1863.23,-840.8 1865.1,-834.06"/>
</g>
<!-- Models/CourtAvailability.ts&#45;&gt;Models/User.ts -->
<g id="edge54" class="edge">
<title>Models/CourtAvailability.ts&#45;&gt;Models/User.ts</title>
<path fill="none" stroke="#757575" d="M1984.25,-849.66C1945.7,-817.23 1835.72,-728.92 1729.25,-683 1651.54,-649.49 1613.55,-687.85 1543.75,-640 1520.26,-623.9 1530.94,-603.52 1507.75,-587 1497.93,-580 1486.32,-574.89 1474.63,-571.15"/>
<polygon fill="#757575" stroke="#757575" points="1475.95,-567.89 1465.38,-568.51 1474.03,-574.62 1475.95,-567.89"/>
</g>
<!-- Models/CourtPricing.ts&#45;&gt;Models/Court.ts -->
<g id="edge55" class="edge">
<title>Models/CourtPricing.ts&#45;&gt;Models/Court.ts</title>
<path fill="none" stroke="#757575" d="M1985.21,-1020.78C1952.74,-985.92 1870.08,-887.28 1836.45,-843.32"/>
<polygon fill="#757575" stroke="#757575" points="1839.41,-841.44 1830.61,-835.54 1833.81,-845.64 1839.41,-841.44"/>
</g>
<!-- Models/Customer.ts&#45;&gt;Models/Reservation.ts -->
<g id="edge56" class="edge">
<title>Models/Customer.ts&#45;&gt;Models/Reservation.ts</title>
<path fill="none" stroke="#757575" d="M2147.81,-583.75C2122.59,-581.51 2093.98,-578.31 2068.73,-574.93"/>
<polygon fill="#757575" stroke="#757575" points="2069.28,-571.48 2058.89,-573.58 2068.32,-578.41 2069.28,-571.48"/>
</g>
<!-- Models/Customer.ts&#45;&gt;Models/User.ts -->
<g id="edge57" class="edge">
<title>Models/Customer.ts&#45;&gt;Models/User.ts</title>
<path fill="none" stroke="#757575" d="M2148.23,-594.03C2027,-603.49 1764.25,-612.2 1543.75,-593 1541.5,-592.81 1493.66,-584.44 1456.16,-575.87"/>
<polygon fill="#757575" stroke="#757575" points="1457.42,-572.57 1446.89,-573.68 1455.81,-579.39 1457.42,-572.57"/>
</g>
<!-- Models/Notification.ts&#45;&gt;Models/User.ts -->
<g id="edge58" class="edge">
<title>Models/Notification.ts&#45;&gt;Models/User.ts</title>
<path fill="none" stroke="#757575" d="M1590.5,-412.29C1573.99,-416.44 1556.3,-422.97 1543.75,-435 1506.91,-470.29 1544.81,-508.93 1507.75,-544 1498.61,-552.65 1486.89,-558.49 1474.8,-562.2"/>
<polygon fill="#757575" stroke="#757575" points="1473.95,-558.81 1465.12,-564.66 1475.67,-565.59 1473.95,-558.81"/>
</g>
<!-- Models/Payment.ts&#45;&gt;Models/Reservation.ts -->
<g id="edge59" class="edge">
<title>Models/Payment.ts&#45;&gt;Models/Reservation.ts</title>
<path fill="none" stroke="#757575" d="M2207.96,-305.27C2177.79,-347.74 2066.55,-486.86 2020.64,-540.17"/>
<polygon fill="#757575" stroke="#757575" points="2018.04,-537.83 2014.11,-547.67 2023.32,-542.43 2018.04,-537.83"/>
</g>
<!-- Models/Payment.ts&#45;&gt;Models/User.ts -->
<g id="edge60" class="edge">
<title>Models/Payment.ts&#45;&gt;Models/User.ts</title>
<path fill="none" stroke="#757575" d="M2187.03,-305.24C2070.45,-349.12 1629.62,-496.38 1469.81,-545.28"/>
<polygon fill="#757575" stroke="#757575" points="1468.8,-541.93 1460.25,-548.19 1470.83,-548.63 1468.8,-541.93"/>
</g>
<!-- Models/Reservation.ts&#45;&gt;Models/Court.ts -->
<g id="edge61" class="edge">
<title>Models/Reservation.ts&#45;&gt;Models/Court.ts</title>
<path fill="none" stroke="#757575" d="M1992.18,-573.27C1967.32,-614.77 1877.21,-748.32 1839.09,-800.78"/>
<polygon fill="#757575" stroke="#757575" points="1836.41,-798.52 1833.3,-808.65 1842.05,-802.67 1836.41,-798.52"/>
</g>
<!-- Models/Reservation.ts&#45;&gt;Models/Customer.ts -->
<g id="edge62" class="edge">
<title>Models/Reservation.ts&#45;&gt;Models/Customer.ts</title>
<path fill="none" stroke="#757575" d="M2075.22,-562.87C2098.88,-565.08 2124.89,-568.03 2148.03,-571.14"/>
<polygon fill="#757575" stroke="#757575" points="2147.25,-574.56 2157.64,-572.46 2148.21,-567.63 2147.25,-574.56"/>
</g>
<!-- Models/Reservation.ts&#45;&gt;Models/Payment.ts -->
<g id="edge63" class="edge">
<title>Models/Reservation.ts&#45;&gt;Models/Payment.ts</title>
<path fill="none" stroke="#757575" d="M2008.28,-548.75C2038.41,-506.33 2149.47,-367.42 2195.47,-313.99"/>
<polygon fill="#757575" stroke="#757575" points="2198.09,-316.3 2202.02,-306.47 2192.82,-311.7 2198.09,-316.3"/>
</g>
<!-- Models/Reservation.ts&#45;&gt;Models/ReservationPlayer.ts -->
<g id="edge64" class="edge">
<title>Models/Reservation.ts&#45;&gt;Models/ReservationPlayer.ts</title>
<path fill="none" stroke="#757575" d="M2055.43,-548.66C2072.49,-546.13 2091.9,-543.61 2111.17,-541.4"/>
<polygon fill="#757575" stroke="#757575" points="2111.44,-544.89 2120.99,-540.3 2110.66,-537.93 2111.44,-544.89"/>
</g>
<!-- Models/Reservation.ts&#45;&gt;Models/User.ts -->
<g id="edge65" class="edge">
<title>Models/Reservation.ts&#45;&gt;Models/User.ts</title>
<path fill="none" stroke="#757575" d="M1924.48,-565.67C1808.09,-568.53 1584.51,-568.44 1475.05,-565.39"/>
<polygon fill="#757575" stroke="#757575" points="1475.47,-561.9 1465.37,-565.1 1475.27,-568.9 1475.47,-561.9"/>
</g>
<!-- Models/ReservationPlayer.ts&#45;&gt;Models/Reservation.ts -->
<g id="edge66" class="edge">
<title>Models/ReservationPlayer.ts&#45;&gt;Models/Reservation.ts</title>
<path fill="none" stroke="#757575" d="M2160.82,-548.34C2138.28,-551.69 2111.62,-555.01 2086.58,-557.63"/>
<polygon fill="#757575" stroke="#757575" points="2086.32,-554.14 2076.72,-558.63 2087.03,-561.11 2086.32,-554.14"/>
</g>
<!-- Models/ReservationPlayer.ts&#45;&gt;Models/User.ts -->
<g id="edge67" class="edge">
<title>Models/ReservationPlayer.ts&#45;&gt;Models/User.ts</title>
<path fill="none" stroke="#757575" d="M2122.41,-544.26C2062.45,-546.06 1982.87,-547.06 1912.5,-549 1755.24,-553.33 1570.35,-562.01 1475.2,-563.58"/>
<polygon fill="#757575" stroke="#757575" points="1475.24,-560.08 1465.29,-563.72 1475.34,-567.08 1475.24,-560.08"/>
</g>
<!-- Models/User.ts&#45;&gt;Models/AuthToken.ts -->
<g id="edge68" class="edge">
<title>Models/User.ts&#45;&gt;Models/AuthToken.ts</title>
<path fill="none" stroke="#757575" d="M1357.05,-566.64C1324.31,-567.8 1281.49,-568.05 1244.36,-567.4"/>
<polygon fill="#757575" stroke="#757575" points="1244.62,-563.9 1234.55,-567.19 1244.48,-570.9 1244.62,-563.9"/>
</g>
<!-- Models/User.ts&#45;&gt;Models/Customer.ts -->
<g id="edge69" class="edge">
<title>Models/User.ts&#45;&gt;Models/Customer.ts</title>
<path fill="none" stroke="#757575" d="M1463.72,-562.8C1499.79,-567.51 1541.65,-574.82 1543.75,-575 1757.57,-593.62 2011.13,-585.99 2136.83,-583.57"/>
<polygon fill="#757575" stroke="#757575" points="2136.78,-587.07 2146.71,-583.38 2136.65,-580.07 2136.78,-587.07"/>
</g>
<!-- Models/User.ts&#45;&gt;Models/Notification.ts -->
<g id="edge70" class="edge">
<title>Models/User.ts&#45;&gt;Models/Notification.ts</title>
<path fill="none" stroke="#757575" d="M1460.66,-548.72C1477.39,-544.6 1495.05,-538.02 1507.75,-526 1544.81,-490.93 1506.91,-452.29 1543.75,-417 1546.8,-414.08 1550.15,-411.48 1553.71,-409.18"/>
<polygon fill="#757575" stroke="#757575" points="1555.17,-412.38 1562.25,-404.5 1551.8,-406.24 1555.17,-412.38"/>
</g>
<!-- Models/User.ts&#45;&gt;Models/Payment.ts -->
<g id="edge71" class="edge">
<title>Models/User.ts&#45;&gt;Models/Payment.ts</title>
<path fill="none" stroke="#757575" d="M1440.12,-548.75C1556.78,-504.84 1997.82,-357.52 2157.48,-308.67"/>
<polygon fill="#757575" stroke="#757575" points="2158.48,-312.02 2167.03,-305.76 2156.44,-305.32 2158.48,-312.02"/>
</g>
<!-- Models/User.ts&#45;&gt;Models/Reservation.ts -->
<g id="edge72" class="edge">
<title>Models/User.ts&#45;&gt;Models/Reservation.ts</title>
<path fill="none" stroke="#757575" d="M1463.86,-556.95C1565.39,-553.67 1789.84,-553.38 1913.22,-556.07"/>
<polygon fill="#757575" stroke="#757575" points="1912.89,-559.57 1922.97,-556.3 1913.05,-552.57 1912.89,-559.57"/>
</g>
<!-- Models/User.ts&#45;&gt;Models/ReservationPlayer.ts -->
<g id="edge73" class="edge">
<title>Models/User.ts&#45;&gt;Models/ReservationPlayer.ts</title>
<path fill="none" stroke="#757575" d="M1463.77,-552.89C1554.88,-544.75 1748.68,-535.51 1912.5,-531 1978.47,-529.18 2052.54,-528.19 2110.94,-528.7"/>
<polygon fill="#757575" stroke="#757575" points="2110.86,-532.2 2120.89,-528.81 2110.93,-525.2 2110.86,-532.2"/>
</g>
<!-- Models/User.ts&#45;&gt;Models/UserAchievement.ts -->
<g id="edge74" class="edge">
<title>Models/User.ts&#45;&gt;Models/UserAchievement.ts</title>
<path fill="none" stroke="#757575" d="M1463.77,-557.48C1479.41,-560.78 1495.61,-567.16 1507.75,-578 1540.19,-606.97 1511.49,-639.83 1543.75,-669 1554.22,-678.46 1567.88,-684.51 1581.45,-688.69"/>
<polygon fill="#757575" stroke="#757575" points="1580.23,-691.98 1590.8,-691.28 1582.09,-685.24 1580.23,-691.98"/>
</g>
<!-- Models/User.ts&#45;&gt;Models/UserStats.ts -->
<g id="edge75" class="edge">
<title>Models/User.ts&#45;&gt;Models/UserStats.ts</title>
<path fill="none" stroke="#757575" d="M1463.84,-556.47C1479.76,-559.66 1496.11,-566.26 1507.75,-578 1552.38,-623.01 1498.26,-671.86 1543.75,-716 1550.1,-722.16 1557.87,-726.66 1566.17,-730"/>
<polygon fill="#757575" stroke="#757575" points="1564.88,-733.25 1575.47,-733.17 1567.13,-726.63 1564.88,-733.25"/>
</g>
<!-- Models/UserAchievement.ts&#45;&gt;Models/User.ts -->
<g id="edge76" class="edge">
<title>Models/UserAchievement.ts&#45;&gt;Models/User.ts</title>
<path fill="none" stroke="#757575" d="M1549.56,-691.68C1547.53,-690.23 1545.59,-688.67 1543.75,-687 1511.49,-657.83 1540.19,-624.97 1507.75,-596 1497.16,-586.54 1483.46,-580.47 1469.75,-576.3"/>
<polygon fill="#757575" stroke="#757575" points="1470.83,-572.97 1460.26,-573.73 1469,-579.72 1470.83,-572.97"/>
</g>
<!-- Models/UserStats.ts&#45;&gt;Models/Court.ts -->
<g id="edge77" class="edge">
<title>Models/UserStats.ts&#45;&gt;Models/Court.ts</title>
<path fill="none" stroke="#757575" d="M1681.18,-758.35C1715.16,-771.1 1761.34,-790.6 1790.88,-804.82"/>
<polygon fill="#757575" stroke="#757575" points="1789.09,-807.84 1799.6,-809.13 1792.19,-801.57 1789.09,-807.84"/>
</g>
<!-- Models/UserStats.ts&#45;&gt;Models/User.ts -->
<g id="edge78" class="edge">
<title>Models/UserStats.ts&#45;&gt;Models/User.ts</title>
<path fill="none" stroke="#757575" d="M1567.49,-748.32C1558.69,-745.13 1550.43,-740.49 1543.75,-734 1498.26,-689.86 1552.38,-641.01 1507.75,-596 1498.61,-586.78 1486.56,-580.73 1474.09,-576.56"/>
<polygon fill="#757575" stroke="#757575" points="1475.12,-573.21 1464.54,-573.77 1473.16,-579.93 1475.12,-573.21"/>
</g>
<!-- Config/nodemailer.ts -->
<g id="node14" class="node">
<title>Config/nodemailer.ts</title>
<path fill="none" stroke="#cfffac" d="M1472.46,-179.88C1472.46,-179.88 1348.54,-179.88 1348.54,-179.88 1344.58,-179.88 1340.62,-175.92 1340.62,-171.96 1340.62,-171.96 1340.62,-164.04 1340.62,-164.04 1340.62,-160.08 1344.58,-156.13 1348.54,-156.13 1348.54,-156.13 1472.46,-156.13 1472.46,-156.13 1476.42,-156.13 1480.38,-160.08 1480.38,-164.04 1480.38,-164.04 1480.38,-171.96 1480.38,-171.96 1480.38,-175.92 1476.42,-179.88 1472.46,-179.88"/>
<text xml:space="preserve" text-anchor="middle" x="1410.5" y="-162.58" font-family="Arial" font-size="14.00" fill="#cfffac">Config/nodemailer.ts</text>
</g>
<!-- Controllers/authControllers.ts -->
<g id="node15" class="node">
<title>Controllers/authControllers.ts</title>
<path fill="none" stroke="#c6c5fe" d="M997.21,-414.88C997.21,-414.88 822.29,-414.88 822.29,-414.88 818.33,-414.88 814.38,-410.92 814.38,-406.96 814.38,-406.96 814.38,-399.04 814.38,-399.04 814.38,-395.08 818.33,-391.13 822.29,-391.13 822.29,-391.13 997.21,-391.13 997.21,-391.13 1001.17,-391.13 1005.12,-395.08 1005.12,-399.04 1005.12,-399.04 1005.12,-406.96 1005.12,-406.96 1005.12,-410.92 1001.17,-414.88 997.21,-414.88"/>
<text xml:space="preserve" text-anchor="middle" x="909.75" y="-397.58" font-family="Arial" font-size="14.00" fill="#c6c5fe">Controllers/authControllers.ts</text>
</g>
<!-- Controllers/authControllers.ts&#45;&gt;Models/AuthToken.ts -->
<g id="edge14" class="edge">
<title>Controllers/authControllers.ts&#45;&gt;Models/AuthToken.ts</title>
<path fill="none" stroke="#757575" d="M925.62,-415.09C949.97,-434.6 1000.21,-473.7 1046,-502 1071.15,-517.54 1100.86,-532.75 1123.73,-543.84"/>
<polygon fill="#757575" stroke="#757575" points="1122.14,-546.96 1132.67,-548.12 1125.17,-540.64 1122.14,-546.96"/>
</g>
<!-- Controllers/authControllers.ts&#45;&gt;Models/Customer.ts -->
<g id="edge15" class="edge">
<title>Controllers/authControllers.ts&#45;&gt;Models/Customer.ts</title>
<path fill="none" stroke="#757575" d="M926.76,-390.74C951.05,-372.86 999.33,-340.14 1046,-325 1190.43,-278.14 1582.86,-278.71 1729.25,-319 1926.31,-373.24 1938.45,-468.62 2122.75,-557 2132.44,-561.65 2143.08,-565.72 2153.58,-569.21"/>
<polygon fill="#757575" stroke="#757575" points="2152.4,-572.51 2162.99,-572.19 2154.51,-565.83 2152.4,-572.51"/>
</g>
<!-- Controllers/authControllers.ts&#45;&gt;Models/User.ts -->
<g id="edge16" class="edge">
<title>Controllers/authControllers.ts&#45;&gt;Models/User.ts</title>
<path fill="none" stroke="#757575" d="M1005.57,-391.27C1082.33,-385.88 1191.42,-387.77 1277.25,-427 1330.94,-451.54 1374.69,-508.14 1395.81,-539.35"/>
<polygon fill="#757575" stroke="#757575" points="1392.83,-541.19 1401.25,-547.62 1398.68,-537.34 1392.83,-541.19"/>
</g>
<!-- Controllers/authControllers.ts&#45;&gt;Models/UserStats.ts -->
<g id="edge17" class="edge">
<title>Controllers/authControllers.ts&#45;&gt;Models/UserStats.ts</title>
<path fill="none" stroke="#757575" d="M997.39,-415.31C1104.08,-430.64 1271.97,-455.38 1277.25,-460 1319.79,-497.24 1277.38,-538.31 1313.25,-582 1375.18,-657.45 1431.04,-623.65 1507.75,-684 1526.81,-699 1522.92,-712.58 1543.75,-725 1547.86,-727.45 1552.22,-729.61 1556.73,-731.52"/>
<polygon fill="#757575" stroke="#757575" points="1555.46,-734.78 1566.05,-735.01 1557.91,-728.23 1555.46,-734.78"/>
</g>
<!-- Emails/authEmails.ts -->
<g id="node16" class="node">
<title>Emails/authEmails.ts</title>
<path fill="none" stroke="#c6c5fe" d="M1225.08,-263.88C1225.08,-263.88 1098.17,-263.88 1098.17,-263.88 1094.21,-263.88 1090.25,-259.92 1090.25,-255.96 1090.25,-255.96 1090.25,-248.04 1090.25,-248.04 1090.25,-244.08 1094.21,-240.13 1098.17,-240.13 1098.17,-240.13 1225.08,-240.13 1225.08,-240.13 1229.04,-240.13 1233,-244.08 1233,-248.04 1233,-248.04 1233,-255.96 1233,-255.96 1233,-259.92 1229.04,-263.88 1225.08,-263.88"/>
<text xml:space="preserve" text-anchor="middle" x="1161.62" y="-246.58" font-family="Arial" font-size="14.00" fill="#c6c5fe">Emails/authEmails.ts</text>
</g>
<!-- Controllers/authControllers.ts&#45;&gt;Emails/authEmails.ts -->
<g id="edge13" class="edge">
<title>Controllers/authControllers.ts&#45;&gt;Emails/authEmails.ts</title>
<path fill="none" stroke="#757575" d="M920.11,-390.82C940.22,-365.55 990.26,-307.34 1046,-278 1056.19,-272.63 1067.47,-268.37 1078.85,-264.98"/>
<polygon fill="#757575" stroke="#757575" points="1079.58,-268.41 1088.3,-262.4 1077.73,-261.66 1079.58,-268.41"/>
</g>
<!-- Utils/auth.ts -->
<g id="node17" class="node">
<title>Utils/auth.ts</title>
<path fill="none" stroke="#cfffac" d="M1196.96,-221.88C1196.96,-221.88 1126.29,-221.88 1126.29,-221.88 1122.33,-221.88 1118.38,-217.92 1118.38,-213.96 1118.38,-213.96 1118.38,-206.04 1118.38,-206.04 1118.38,-202.08 1122.33,-198.13 1126.29,-198.13 1126.29,-198.13 1196.96,-198.13 1196.96,-198.13 1200.92,-198.13 1204.88,-202.08 1204.88,-206.04 1204.88,-206.04 1204.88,-213.96 1204.88,-213.96 1204.88,-217.92 1200.92,-221.88 1196.96,-221.88"/>
<text xml:space="preserve" text-anchor="middle" x="1161.62" y="-204.58" font-family="Arial" font-size="14.00" fill="#cfffac">Utils/auth.ts</text>
</g>
<!-- Controllers/authControllers.ts&#45;&gt;Utils/auth.ts -->
<g id="edge18" class="edge">
<title>Controllers/authControllers.ts&#45;&gt;Utils/auth.ts</title>
<path fill="none" stroke="#757575" d="M916.32,-390.97C931.8,-359.01 978.67,-271.62 1046,-231 1064.11,-220.07 1086.55,-214.57 1106.76,-211.88"/>
<polygon fill="#757575" stroke="#757575" points="1106.98,-215.38 1116.53,-210.8 1106.21,-208.42 1106.98,-215.38"/>
</g>
<!-- Utils/jwt.ts -->
<g id="node18" class="node">
<title>Utils/jwt.ts</title>
<path fill="none" stroke="#cfffac" d="M1192.08,-492.88C1192.08,-492.88 1131.17,-492.88 1131.17,-492.88 1127.21,-492.88 1123.25,-488.92 1123.25,-484.96 1123.25,-484.96 1123.25,-477.04 1123.25,-477.04 1123.25,-473.08 1127.21,-469.13 1131.17,-469.13 1131.17,-469.13 1192.08,-469.13 1192.08,-469.13 1196.04,-469.13 1200,-473.08 1200,-477.04 1200,-477.04 1200,-484.96 1200,-484.96 1200,-488.92 1196.04,-492.88 1192.08,-492.88"/>
<text xml:space="preserve" text-anchor="middle" x="1161.62" y="-475.58" font-family="Arial" font-size="14.00" fill="#cfffac">Utils/jwt.ts</text>
</g>
<!-- Controllers/authControllers.ts&#45;&gt;Utils/jwt.ts -->
<g id="edge19" class="edge">
<title>Controllers/authControllers.ts&#45;&gt;Utils/jwt.ts</title>
<path fill="none" stroke="#757575" d="M939.09,-415.27C966.17,-426.67 1008.33,-443.55 1046,-455 1067.33,-461.48 1091.34,-467.17 1111.85,-471.56"/>
<polygon fill="#757575" stroke="#757575" points="1110.85,-474.93 1121.36,-473.55 1112.29,-468.07 1110.85,-474.93"/>
</g>
<!-- Utils/token.ts -->
<g id="node19" class="node">
<title>Utils/token.ts</title>
<path fill="none" stroke="#cfffac" d="M1200.33,-179.88C1200.33,-179.88 1122.92,-179.88 1122.92,-179.88 1118.96,-179.88 1115,-175.92 1115,-171.96 1115,-171.96 1115,-164.04 1115,-164.04 1115,-160.08 1118.96,-156.13 1122.92,-156.13 1122.92,-156.13 1200.33,-156.13 1200.33,-156.13 1204.29,-156.13 1208.25,-160.08 1208.25,-164.04 1208.25,-164.04 1208.25,-171.96 1208.25,-171.96 1208.25,-175.92 1204.29,-179.88 1200.33,-179.88"/>
<text xml:space="preserve" text-anchor="middle" x="1161.62" y="-162.58" font-family="Arial" font-size="14.00" fill="#cfffac">Utils/token.ts</text>
</g>
<!-- Controllers/authControllers.ts&#45;&gt;Utils/token.ts -->
<g id="edge20" class="edge">
<title>Controllers/authControllers.ts&#45;&gt;Utils/token.ts</title>
<path fill="none" stroke="#757575" d="M914.52,-390.83C926.71,-353.69 968.79,-241.16 1046,-189 1062.75,-177.69 1083.88,-172 1103.42,-169.28"/>
<polygon fill="#757575" stroke="#757575" points="1103.65,-172.78 1113.19,-168.17 1102.86,-165.82 1103.65,-172.78"/>
</g>
<!-- Emails/authEmails.ts&#45;&gt;Config/nodemailer.ts -->
<g id="edge44" class="edge">
<title>Emails/authEmails.ts&#45;&gt;Config/nodemailer.ts</title>
<path fill="none" stroke="#757575" d="M1233.42,-246.06C1248.48,-242.9 1263.86,-238.14 1277.25,-231 1297.49,-220.2 1293.47,-205.63 1313.25,-194 1319.77,-190.17 1326.86,-186.89 1334.15,-184.08"/>
<polygon fill="#757575" stroke="#757575" points="1335.21,-187.42 1343.48,-180.8 1332.89,-180.82 1335.21,-187.42"/>
</g>
<!-- Controllers/courtAvailabilityControllers.ts -->
<g id="node20" class="node">
<title>Controllers/courtAvailabilityControllers.ts</title>
<path fill="none" stroke="#c6c5fe" d="M765.58,-987.88C765.58,-987.88 523.17,-987.88 523.17,-987.88 519.21,-987.88 515.25,-983.92 515.25,-979.96 515.25,-979.96 515.25,-972.04 515.25,-972.04 515.25,-968.08 519.21,-964.13 523.17,-964.13 523.17,-964.13 765.58,-964.13 765.58,-964.13 769.54,-964.13 773.5,-968.08 773.5,-972.04 773.5,-972.04 773.5,-979.96 773.5,-979.96 773.5,-983.92 769.54,-987.88 765.58,-987.88"/>
<text xml:space="preserve" text-anchor="middle" x="644.38" y="-970.58" font-family="Arial" font-size="14.00" fill="#c6c5fe">Controllers/courtAvailabilityControllers.ts</text>
</g>
<!-- Controllers/courtAvailabilityControllers.ts&#45;&gt;Config/db.ts -->
<g id="edge21" class="edge">
<title>Controllers/courtAvailabilityControllers.ts&#45;&gt;Config/db.ts</title>
<path fill="none" stroke="#757575" d="M683.67,-963.64C730.19,-948.63 808.75,-923.27 859.67,-906.84"/>
<polygon fill="#757575" stroke="#757575" points="860.52,-910.24 868.97,-903.84 858.37,-903.58 860.52,-910.24"/>
</g>
<!-- Controllers/courtAvailabilityControllers.ts&#45;&gt;Models/CourtAvailability.ts -->
<g id="edge22" class="edge">
<title>Controllers/courtAvailabilityControllers.ts&#45;&gt;Models/CourtAvailability.ts</title>
<path fill="none" stroke="#757575" d="M753.41,-988.37C760.24,-989.76 766.99,-991.29 773.5,-993 899.68,-1026.06 917.91,-1077.33 1046,-1102 1412.15,-1172.52 1550.15,-1163.39 1876.5,-983 1922.1,-957.8 1962.3,-910.7 1983.26,-883.29"/>
<polygon fill="#757575" stroke="#757575" points="1985.99,-885.48 1989.18,-875.37 1980.38,-881.29 1985.99,-885.48"/>
</g>
<!-- Utils/courtAvailabilityHelpers.ts -->
<g id="node21" class="node">
<title>Utils/courtAvailabilityHelpers.ts</title>
<path fill="none" stroke="#c6c5fe" d="M1002.08,-1215.88C1002.08,-1215.88 817.42,-1215.88 817.42,-1215.88 813.46,-1215.88 809.5,-1211.92 809.5,-1207.96 809.5,-1207.96 809.5,-1200.04 809.5,-1200.04 809.5,-1196.08 813.46,-1192.13 817.42,-1192.13 817.42,-1192.13 1002.08,-1192.13 1002.08,-1192.13 1006.04,-1192.13 1010,-1196.08 1010,-1200.04 1010,-1200.04 1010,-1207.96 1010,-1207.96 1010,-1211.92 1006.04,-1215.88 1002.08,-1215.88"/>
<text xml:space="preserve" text-anchor="middle" x="909.75" y="-1198.58" font-family="Arial" font-size="14.00" fill="#c6c5fe">Utils/courtAvailabilityHelpers.ts</text>
</g>
<!-- Controllers/courtAvailabilityControllers.ts&#45;&gt;Utils/courtAvailabilityHelpers.ts -->
<g id="edge23" class="edge">
<title>Controllers/courtAvailabilityControllers.ts&#45;&gt;Utils/courtAvailabilityHelpers.ts</title>
<path fill="none" stroke="#757575" d="M654.64,-988.29C686.25,-1030.06 788.99,-1164.79 809.5,-1178 815.35,-1181.77 821.72,-1184.99 828.32,-1187.75"/>
<polygon fill="#757575" stroke="#757575" points="826.83,-1190.93 837.42,-1191.17 829.3,-1184.38 826.83,-1190.93"/>
</g>
<!-- Utils/courtAvailabilityHelpers.ts&#45;&gt;Models/CourtAvailability.ts -->
<g id="edge101" class="edge">
<title>Utils/courtAvailabilityHelpers.ts&#45;&gt;Models/CourtAvailability.ts</title>
<path fill="none" stroke="#757575" d="M1010.23,-1207.77C1230.57,-1213.94 1750.19,-1215.94 1876.5,-1104 1909.36,-1074.88 1893.52,-1051.59 1912.5,-1012 1935.16,-964.73 1966.96,-912.18 1984.9,-883.53"/>
<polygon fill="#757575" stroke="#757575" points="1987.66,-885.72 1990.04,-875.39 1981.74,-881.98 1987.66,-885.72"/>
</g>
<!-- Controllers/courtControllers.ts -->
<g id="node22" class="node">
<title>Controllers/courtControllers.ts</title>
<path fill="none" stroke="#c6c5fe" d="M1499.83,-842.88C1499.83,-842.88 1321.17,-842.88 1321.17,-842.88 1317.21,-842.88 1313.25,-838.92 1313.25,-834.96 1313.25,-834.96 1313.25,-827.04 1313.25,-827.04 1313.25,-823.08 1317.21,-819.13 1321.17,-819.13 1321.17,-819.13 1499.83,-819.13 1499.83,-819.13 1503.79,-819.13 1507.75,-823.08 1507.75,-827.04 1507.75,-827.04 1507.75,-834.96 1507.75,-834.96 1507.75,-838.92 1503.79,-842.88 1499.83,-842.88"/>
<text xml:space="preserve" text-anchor="middle" x="1410.5" y="-825.58" font-family="Arial" font-size="14.00" fill="#c6c5fe">Controllers/courtControllers.ts</text>
</g>
<!-- Controllers/courtControllers.ts&#45;&gt;Models/Court.ts -->
<g id="edge24" class="edge">
<title>Controllers/courtControllers.ts&#45;&gt;Models/Court.ts</title>
<path fill="none" stroke="#757575" d="M1508.02,-828.87C1583.71,-827.21 1687.04,-824.93 1753.62,-823.46"/>
<polygon fill="#757575" stroke="#757575" points="1753.36,-826.97 1763.28,-823.25 1753.21,-819.97 1753.36,-826.97"/>
</g>
<!-- Controllers/courtControllers.ts&#45;&gt;Models/CourtAvailability.ts -->
<g id="edge25" class="edge">
<title>Controllers/courtControllers.ts&#45;&gt;Models/CourtAvailability.ts</title>
<path fill="none" stroke="#757575" d="M1507.91,-837.78C1519.98,-838.57 1532.15,-839.33 1543.75,-840 1666.88,-847.17 1808.85,-853.77 1900.98,-857.83"/>
<polygon fill="#757575" stroke="#757575" points="1900.59,-861.32 1910.73,-858.26 1900.89,-854.33 1900.59,-861.32"/>
</g>
<!-- Controllers/courtControllers.ts&#45;&gt;Models/CourtPricing.ts -->
<g id="edge26" class="edge">
<title>Controllers/courtControllers.ts&#45;&gt;Models/CourtPricing.ts</title>
<path fill="none" stroke="#757575" d="M1447.34,-843.33C1548.9,-878.27 1838.56,-977.93 1952.13,-1017"/>
<polygon fill="#757575" stroke="#757575" points="1950.85,-1020.27 1961.45,-1020.21 1953.13,-1013.65 1950.85,-1020.27"/>
</g>
<!-- Controllers/courtControllers.ts&#45;&gt;Models/Reservation.ts -->
<g id="edge27" class="edge">
<title>Controllers/courtControllers.ts&#45;&gt;Models/Reservation.ts</title>
<path fill="none" stroke="#757575" d="M1508.13,-823.01C1572.98,-814.94 1659.04,-798.85 1729.25,-767 1834.62,-719.21 1936.96,-623.4 1978.82,-581.45"/>
<polygon fill="#757575" stroke="#757575" points="1981.22,-584.01 1985.75,-574.44 1976.24,-579.09 1981.22,-584.01"/>
</g>
<!-- Controllers/courtControllers.ts&#45;&gt;Models/UserStats.ts -->
<g id="edge28" class="edge">
<title>Controllers/courtControllers.ts&#45;&gt;Models/UserStats.ts</title>
<path fill="none" stroke="#757575" d="M1474.55,-818.63C1485.98,-815.1 1497.51,-810.63 1507.75,-805 1526.77,-794.54 1524.8,-782.58 1543.75,-772 1550.63,-768.16 1558.12,-764.85 1565.76,-762.01"/>
<polygon fill="#757575" stroke="#757575" points="1566.85,-765.33 1575.17,-758.78 1564.58,-758.71 1566.85,-765.33"/>
</g>
<!-- Controllers/courtPricingControllers.ts -->
<g id="node23" class="node">
<title>Controllers/courtPricingControllers.ts</title>
<path fill="none" stroke="#c6c5fe" d="M754.33,-1247.88C754.33,-1247.88 534.42,-1247.88 534.42,-1247.88 530.46,-1247.88 526.5,-1243.92 526.5,-1239.96 526.5,-1239.96 526.5,-1232.04 526.5,-1232.04 526.5,-1228.08 530.46,-1224.13 534.42,-1224.13 534.42,-1224.13 754.33,-1224.13 754.33,-1224.13 758.29,-1224.13 762.25,-1228.08 762.25,-1232.04 762.25,-1232.04 762.25,-1239.96 762.25,-1239.96 762.25,-1243.92 758.29,-1247.88 754.33,-1247.88"/>
<text xml:space="preserve" text-anchor="middle" x="644.38" y="-1230.58" font-family="Arial" font-size="14.00" fill="#c6c5fe">Controllers/courtPricingControllers.ts</text>
</g>
<!-- Controllers/courtPricingControllers.ts&#45;&gt;Config/db.ts -->
<g id="edge29" class="edge">
<title>Controllers/courtPricingControllers.ts&#45;&gt;Config/db.ts</title>
<path fill="none" stroke="#757575" d="M654.75,-1223.72C693.71,-1172.69 843.12,-976.97 892.67,-912.06"/>
<polygon fill="#757575" stroke="#757575" points="895.28,-914.41 898.57,-904.34 889.72,-910.16 895.28,-914.41"/>
</g>
<!-- Controllers/courtPricingControllers.ts&#45;&gt;Models/CourtPricing.ts -->
<g id="edge30" class="edge">
<title>Controllers/courtPricingControllers.ts&#45;&gt;Models/CourtPricing.ts</title>
<path fill="none" stroke="#757575" d="M762.58,-1245.03C963.26,-1257.53 1384.39,-1270.75 1729.25,-1195 1796.9,-1180.14 1816.94,-1179.35 1876.5,-1144 1918.45,-1119.11 1958.62,-1078.23 1980.82,-1053.64"/>
<polygon fill="#757575" stroke="#757575" points="1983.39,-1056.02 1987.41,-1046.21 1978.15,-1051.37 1983.39,-1056.02"/>
</g>
<!-- Utils/courtPricingHelpers.ts -->
<g id="node24" class="node">
<title>Utils/courtPricingHelpers.ts</title>
<path fill="none" stroke="#c6c5fe" d="M990.83,-1329.88C990.83,-1329.88 828.67,-1329.88 828.67,-1329.88 824.71,-1329.88 820.75,-1325.92 820.75,-1321.96 820.75,-1321.96 820.75,-1314.04 820.75,-1314.04 820.75,-1310.08 824.71,-1306.13 828.67,-1306.13 828.67,-1306.13 990.83,-1306.13 990.83,-1306.13 994.79,-1306.13 998.75,-1310.08 998.75,-1314.04 998.75,-1314.04 998.75,-1321.96 998.75,-1321.96 998.75,-1325.92 994.79,-1329.88 990.83,-1329.88"/>
<text xml:space="preserve" text-anchor="middle" x="909.75" y="-1312.58" font-family="Arial" font-size="14.00" fill="#c6c5fe">Utils/courtPricingHelpers.ts</text>
</g>
<!-- Controllers/courtPricingControllers.ts&#45;&gt;Utils/courtPricingHelpers.ts -->
<g id="edge31" class="edge">
<title>Controllers/courtPricingControllers.ts&#45;&gt;Utils/courtPricingHelpers.ts</title>
<path fill="none" stroke="#757575" d="M679.09,-1248.31C712.11,-1260.17 763.95,-1278.28 809.5,-1292 821.83,-1295.72 835.12,-1299.41 847.84,-1302.79"/>
<polygon fill="#757575" stroke="#757575" points="846.8,-1306.14 857.36,-1305.29 848.58,-1299.37 846.8,-1306.14"/>
</g>
<!-- Utils/courtPricingHelpers.ts&#45;&gt;Models/CourtPricing.ts -->
<g id="edge102" class="edge">
<title>Utils/courtPricingHelpers.ts&#45;&gt;Models/CourtPricing.ts</title>
<path fill="none" stroke="#757575" d="M970.36,-1330.37C1133.05,-1360.55 1591.48,-1421.45 1876.5,-1218 1935.67,-1175.76 1974.02,-1095.12 1990.05,-1055.76"/>
<polygon fill="#757575" stroke="#757575" points="1993.26,-1057.16 1993.67,-1046.58 1986.75,-1054.59 1993.26,-1057.16"/>
</g>
<!-- Controllers/customerControllers.ts -->
<g id="node25" class="node">
<title>Controllers/customerControllers.ts</title>
<path fill="none" stroke="#c6c5fe" d="M746.83,-861.88C746.83,-861.88 541.92,-861.88 541.92,-861.88 537.96,-861.88 534,-857.92 534,-853.96 534,-853.96 534,-846.04 534,-846.04 534,-842.08 537.96,-838.13 541.92,-838.13 541.92,-838.13 746.83,-838.13 746.83,-838.13 750.79,-838.13 754.75,-842.08 754.75,-846.04 754.75,-846.04 754.75,-853.96 754.75,-853.96 754.75,-857.92 750.79,-861.88 746.83,-861.88"/>
<text xml:space="preserve" text-anchor="middle" x="644.38" y="-844.58" font-family="Arial" font-size="14.00" fill="#c6c5fe">Controllers/customerControllers.ts</text>
</g>
<!-- Controllers/customerControllers.ts&#45;&gt;Config/db.ts -->
<g id="edge32" class="edge">
<title>Controllers/customerControllers.ts&#45;&gt;Config/db.ts</title>
<path fill="none" stroke="#757575" d="M724.75,-862.36C766.62,-868.88 816.91,-876.7 854.32,-882.53"/>
<polygon fill="#757575" stroke="#757575" points="853.58,-885.95 864,-884.03 854.66,-879.04 853.58,-885.95"/>
</g>
<!-- Controllers/notificationControllers.ts -->
<g id="node26" class="node">
<title>Controllers/notificationControllers.ts</title>
<path fill="none" stroke="#c6c5fe" d="M750.96,-290.88C750.96,-290.88 537.79,-290.88 537.79,-290.88 533.83,-290.88 529.88,-286.92 529.88,-282.96 529.88,-282.96 529.88,-275.04 529.88,-275.04 529.88,-271.08 533.83,-267.13 537.79,-267.13 537.79,-267.13 750.96,-267.13 750.96,-267.13 754.92,-267.13 758.88,-271.08 758.88,-275.04 758.88,-275.04 758.88,-282.96 758.88,-282.96 758.88,-286.92 754.92,-290.88 750.96,-290.88"/>
<text xml:space="preserve" text-anchor="middle" x="644.38" y="-273.58" font-family="Arial" font-size="14.00" fill="#c6c5fe">Controllers/notificationControllers.ts</text>
</g>
<!-- Controllers/notificationControllers.ts&#45;&gt;Config/db.ts -->
<g id="edge33" class="edge">
<title>Controllers/notificationControllers.ts&#45;&gt;Config/db.ts</title>
<path fill="none" stroke="#757575" d="M653.81,-291.02C676.87,-324.47 741.38,-422.18 773.5,-513 803.47,-597.74 779.3,-627.34 809.5,-712 831.04,-772.4 871.54,-836.6 893.56,-869.22"/>
<polygon fill="#757575" stroke="#757575" points="890.62,-871.13 899.15,-877.41 896.4,-867.18 890.62,-871.13"/>
</g>
<!-- Controllers/notificationControllers.ts&#45;&gt;Models/Notification.ts -->
<g id="edge34" class="edge">
<title>Controllers/notificationControllers.ts&#45;&gt;Models/Notification.ts</title>
<path fill="none" stroke="#757575" d="M672.31,-266.78C735.76,-238.74 900.3,-170.38 1046,-147 1147.31,-130.74 1420.36,-93.23 1507.75,-147 1591.75,-198.68 1622.52,-324.52 1631.93,-376.72"/>
<polygon fill="#757575" stroke="#757575" points="1628.43,-377.01 1633.54,-386.28 1635.33,-375.84 1628.43,-377.01"/>
</g>
<!-- Utils/notificationHelpers.ts -->
<g id="node27" class="node">
<title>Utils/notificationHelpers.ts</title>
<path fill="none" stroke="#c6c5fe" d="M987.46,-103.88C987.46,-103.88 832.04,-103.88 832.04,-103.88 828.08,-103.88 824.12,-99.92 824.12,-95.96 824.12,-95.96 824.12,-88.04 824.12,-88.04 824.12,-84.08 828.08,-80.13 832.04,-80.13 832.04,-80.13 987.46,-80.13 987.46,-80.13 991.42,-80.13 995.38,-84.08 995.38,-88.04 995.38,-88.04 995.38,-95.96 995.38,-95.96 995.38,-99.92 991.42,-103.88 987.46,-103.88"/>
<text xml:space="preserve" text-anchor="middle" x="909.75" y="-86.58" font-family="Arial" font-size="14.00" fill="#c6c5fe">Utils/notificationHelpers.ts</text>
</g>
<!-- Controllers/notificationControllers.ts&#45;&gt;Utils/notificationHelpers.ts -->
<g id="edge35" class="edge">
<title>Controllers/notificationControllers.ts&#45;&gt;Utils/notificationHelpers.ts</title>
<path fill="none" stroke="#757575" d="M662.84,-266.69C688.79,-247.91 738.25,-210.11 773.5,-171 792.56,-149.85 786.24,-134.43 809.5,-118 814.55,-114.44 820.05,-111.36 825.79,-108.7"/>
<polygon fill="#757575" stroke="#757575" points="827.01,-111.98 834.93,-104.94 824.35,-105.51 827.01,-111.98"/>
</g>
<!-- Utils/notificationHelpers.ts&#45;&gt;Models/Notification.ts -->
<g id="edge103" class="edge">
<title>Utils/notificationHelpers.ts&#45;&gt;Models/Notification.ts</title>
<path fill="none" stroke="#757575" d="M995.62,-84.44C1140.21,-73.29 1426.57,-59.2 1507.75,-114 1599.31,-175.81 1626,-319.61 1633.12,-376.36"/>
<polygon fill="#757575" stroke="#757575" points="1629.63,-376.63 1634.25,-386.16 1636.58,-375.83 1629.63,-376.63"/>
</g>
<!-- Controllers/paymentControllers.ts -->
<g id="node28" class="node">
<title>Controllers/paymentControllers.ts</title>
<path fill="none" stroke="#c6c5fe" d="M744.96,-128.88C744.96,-128.88 543.79,-128.88 543.79,-128.88 539.83,-128.88 535.88,-124.92 535.88,-120.96 535.88,-120.96 535.88,-113.04 535.88,-113.04 535.88,-109.08 539.83,-105.13 543.79,-105.13 543.79,-105.13 744.96,-105.13 744.96,-105.13 748.92,-105.13 752.88,-109.08 752.88,-113.04 752.88,-113.04 752.88,-120.96 752.88,-120.96 752.88,-124.92 748.92,-128.88 744.96,-128.88"/>
<text xml:space="preserve" text-anchor="middle" x="644.38" y="-111.58" font-family="Arial" font-size="14.00" fill="#c6c5fe">Controllers/paymentControllers.ts</text>
</g>
<!-- Controllers/paymentControllers.ts&#45;&gt;Config/db.ts -->
<g id="edge36" class="edge">
<title>Controllers/paymentControllers.ts&#45;&gt;Config/db.ts</title>
<path fill="none" stroke="#757575" d="M662.01,-129.13C690.67,-151.12 748.68,-200.63 773.5,-258 853.88,-443.77 751.1,-518.2 809.5,-712 828.08,-773.67 870.1,-837.74 893.06,-869.9"/>
<polygon fill="#757575" stroke="#757575" points="889.93,-871.55 898.64,-877.59 895.6,-867.44 889.93,-871.55"/>
</g>
<!-- Controllers/paymentControllers.ts&#45;&gt;Models/Payment.ts -->
<g id="edge37" class="edge">
<title>Controllers/paymentControllers.ts&#45;&gt;Models/Payment.ts</title>
<path fill="none" stroke="#757575" d="M680.73,-104.66C713.62,-93.76 764.25,-78.47 809.5,-71 963.7,-45.54 1004.34,-52 1160.62,-52 1160.62,-52 1160.62,-52 1821.88,-52 1990.01,-52 2146.99,-213.83 2198.19,-272.27"/>
<polygon fill="#757575" stroke="#757575" points="2195.32,-274.29 2204.5,-279.57 2200.62,-269.72 2195.32,-274.29"/>
</g>
<!-- Utils/paymentHelpers.ts -->
<g id="node29" class="node">
<title>Utils/paymentHelpers.ts</title>
<path fill="none" stroke="#c6c5fe" d="M981.46,-23.88C981.46,-23.88 838.04,-23.88 838.04,-23.88 834.08,-23.88 830.12,-19.92 830.12,-15.96 830.12,-15.96 830.12,-8.04 830.12,-8.04 830.12,-4.08 834.08,-0.13 838.04,-0.13 838.04,-0.13 981.46,-0.13 981.46,-0.13 985.42,-0.13 989.38,-4.08 989.38,-8.04 989.38,-8.04 989.38,-15.96 989.38,-15.96 989.38,-19.92 985.42,-23.88 981.46,-23.88"/>
<text xml:space="preserve" text-anchor="middle" x="909.75" y="-6.58" font-family="Arial" font-size="14.00" fill="#c6c5fe">Utils/paymentHelpers.ts</text>
</g>
<!-- Controllers/paymentControllers.ts&#45;&gt;Utils/paymentHelpers.ts -->
<g id="edge38" class="edge">
<title>Controllers/paymentControllers.ts&#45;&gt;Utils/paymentHelpers.ts</title>
<path fill="none" stroke="#757575" d="M745.69,-104.66C755.52,-101.13 765,-96.66 773.5,-91 797.21,-75.23 786.24,-54.43 809.5,-38 814.55,-34.44 820.05,-31.36 825.79,-28.7"/>
<polygon fill="#757575" stroke="#757575" points="827.01,-31.98 834.93,-24.94 824.35,-25.51 827.01,-31.98"/>
</g>
<!-- Utils/paymentHelpers.ts&#45;&gt;Models/Payment.ts -->
<g id="edge104" class="edge">
<title>Utils/paymentHelpers.ts&#45;&gt;Models/Payment.ts</title>
<path fill="none" stroke="#757575" d="M989.79,-12.26C1088.14,-12.55 1261.22,-13 1409.5,-13 1409.5,-13 1409.5,-13 1821.88,-13 1940.12,-13 1989.06,28.62 2086.75,-38 2168.53,-93.77 2201.12,-217.53 2211.52,-269.4"/>
<polygon fill="#757575" stroke="#757575" points="2208.07,-270.03 2213.37,-279.2 2214.95,-268.73 2208.07,-270.03"/>
</g>
<!-- Controllers/reservationControllers.ts -->
<g id="node30" class="node">
<title>Controllers/reservationControllers.ts</title>
<path fill="none" stroke="#c6c5fe" d="M1269.33,-357.88C1269.33,-357.88 1053.92,-357.88 1053.92,-357.88 1049.96,-357.88 1046,-353.92 1046,-349.96 1046,-349.96 1046,-342.04 1046,-342.04 1046,-338.08 1049.96,-334.13 1053.92,-334.13 1053.92,-334.13 1269.33,-334.13 1269.33,-334.13 1273.29,-334.13 1277.25,-338.08 1277.25,-342.04 1277.25,-342.04 1277.25,-349.96 1277.25,-349.96 1277.25,-353.92 1273.29,-357.88 1269.33,-357.88"/>
<text xml:space="preserve" text-anchor="middle" x="1161.62" y="-340.58" font-family="Arial" font-size="14.00" fill="#c6c5fe">Controllers/reservationControllers.ts</text>
</g>
<!-- Controllers/reservationControllers.ts&#45;&gt;Models/Court.ts -->
<g id="edge39" class="edge">
<title>Controllers/reservationControllers.ts&#45;&gt;Models/Court.ts</title>
<path fill="none" stroke="#757575" d="M1277.51,-345.33C1433.27,-345.52 1695.98,-350.2 1729.25,-379 1793.68,-434.78 1814.01,-714.6 1818.7,-798.31"/>
<polygon fill="#757575" stroke="#757575" points="1815.2,-798.48 1819.23,-808.28 1822.19,-798.11 1815.2,-798.48"/>
</g>
<!-- Controllers/reservationControllers.ts&#45;&gt;Models/Payment.ts -->
<g id="edge40" class="edge">
<title>Controllers/reservationControllers.ts&#45;&gt;Models/Payment.ts</title>
<path fill="none" stroke="#757575" d="M1213.36,-333.66C1234.12,-327.28 1257.79,-318.22 1277.25,-306 1296.41,-293.97 1292.68,-279.43 1313.25,-270 1443.8,-210.15 1491.88,-246 1635.5,-246 1635.5,-246 1635.5,-246 1821.88,-246 1933.42,-246 2061.51,-264.83 2140.5,-278.65"/>
<polygon fill="#757575" stroke="#757575" points="2139.85,-282.09 2150.31,-280.39 2141.07,-275.2 2139.85,-282.09"/>
</g>
<!-- Controllers/reservationControllers.ts&#45;&gt;Models/Reservation.ts -->
<g id="edge41" class="edge">
<title>Controllers/reservationControllers.ts&#45;&gt;Models/Reservation.ts</title>
<path fill="none" stroke="#757575" d="M1277.7,-334.7C1419.99,-322.73 1652.77,-310.27 1729.25,-348 1751.91,-359.18 1746.86,-374.67 1765.25,-392 1831.75,-454.69 1922.18,-513.97 1968.53,-542.78"/>
<polygon fill="#757575" stroke="#757575" points="1966.62,-545.72 1976.97,-547.99 1970.3,-539.76 1966.62,-545.72"/>
</g>
<!-- Controllers/reservationControllers.ts&#45;&gt;Models/ReservationPlayer.ts -->
<g id="edge42" class="edge">
<title>Controllers/reservationControllers.ts&#45;&gt;Models/ReservationPlayer.ts</title>
<path fill="none" stroke="#757575" d="M1220.11,-333.69C1323.35,-313.69 1546.48,-280.08 1729.25,-319 1914.09,-358.36 2113.81,-473.19 2186.83,-517.9"/>
<polygon fill="#757575" stroke="#757575" points="2184.64,-520.66 2194.99,-522.93 2188.31,-514.7 2184.64,-520.66"/>
</g>
<!-- Controllers/reservationControllers.ts&#45;&gt;Models/User.ts -->
<g id="edge43" class="edge">
<title>Controllers/reservationControllers.ts&#45;&gt;Models/User.ts</title>
<path fill="none" stroke="#757575" d="M1213.32,-358.34C1234.43,-365.11 1258.37,-375.03 1277.25,-389 1333.5,-430.63 1377.76,-502.42 1397.8,-538.67"/>
<polygon fill="#757575" stroke="#757575" points="1394.68,-540.25 1402.52,-547.38 1400.83,-536.92 1394.68,-540.25"/>
</g>
<!-- Middleware/auth.ts -->
<g id="node31" class="node">
<title>Middleware/auth.ts</title>
<path fill="none" stroke="#c6c5fe" d="M966.83,-625.88C966.83,-625.88 852.67,-625.88 852.67,-625.88 848.71,-625.88 844.75,-621.92 844.75,-617.96 844.75,-617.96 844.75,-610.04 844.75,-610.04 844.75,-606.08 848.71,-602.13 852.67,-602.13 852.67,-602.13 966.83,-602.13 966.83,-602.13 970.79,-602.13 974.75,-606.08 974.75,-610.04 974.75,-610.04 974.75,-617.96 974.75,-617.96 974.75,-621.92 970.79,-625.88 966.83,-625.88"/>
<text xml:space="preserve" text-anchor="middle" x="909.75" y="-608.58" font-family="Arial" font-size="14.00" fill="#c6c5fe">Middleware/auth.ts</text>
</g>
<!-- Middleware/auth.ts&#45;&gt;Models/User.ts -->
<g id="edge45" class="edge">
<title>Middleware/auth.ts&#45;&gt;Models/User.ts</title>
<path fill="none" stroke="#757575" d="M975.11,-609.76C1048.41,-604.61 1171.7,-594.97 1277.25,-582 1299.75,-579.24 1324.29,-575.53 1346.06,-572"/>
<polygon fill="#757575" stroke="#757575" points="1346.37,-575.5 1355.67,-570.43 1345.24,-568.59 1346.37,-575.5"/>
</g>
<!-- Middleware/auth.ts&#45;&gt;Models/UserStats.ts -->
<g id="edge46" class="edge">
<title>Middleware/auth.ts&#45;&gt;Models/UserStats.ts</title>
<path fill="none" stroke="#757575" d="M975.07,-625.71C1107.93,-649.91 1412.3,-705.35 1556.7,-731.65"/>
<polygon fill="#757575" stroke="#757575" points="1555.7,-735.02 1566.16,-733.37 1556.95,-728.14 1555.7,-735.02"/>
</g>
<!-- Middleware/auth.ts&#45;&gt;Utils/jwt.ts -->
<g id="edge47" class="edge">
<title>Middleware/auth.ts&#45;&gt;Utils/jwt.ts</title>
<path fill="none" stroke="#757575" d="M975.2,-606.05C987.76,-602.15 1000.09,-596.42 1010,-588 1040.02,-562.49 1015.56,-532.01 1046,-507 1064.26,-492 1089.46,-485.25 1111.58,-482.35"/>
<polygon fill="#757575" stroke="#757575" points="1111.73,-485.86 1121.31,-481.33 1111,-478.9 1111.73,-485.86"/>
</g>
<!-- Middleware/validateRequest.ts -->
<g id="node32" class="node">
<title>Middleware/validateRequest.ts</title>
<path fill="none" stroke="#cfffac" d="M1002.08,-702.88C1002.08,-702.88 817.42,-702.88 817.42,-702.88 813.46,-702.88 809.5,-698.92 809.5,-694.96 809.5,-694.96 809.5,-687.04 809.5,-687.04 809.5,-683.08 813.46,-679.13 817.42,-679.13 817.42,-679.13 1002.08,-679.13 1002.08,-679.13 1006.04,-679.13 1010,-683.08 1010,-687.04 1010,-687.04 1010,-694.96 1010,-694.96 1010,-698.92 1006.04,-702.88 1002.08,-702.88"/>
<text xml:space="preserve" text-anchor="middle" x="909.75" y="-685.58" font-family="Arial" font-size="14.00" fill="#cfffac">Middleware/validateRequest.ts</text>
</g>
<!-- Middleware/validation.ts -->
<g id="node33" class="node">
<title>Middleware/validation.ts</title>
<path fill="none" stroke="#cfffac" d="M982.21,-545.88C982.21,-545.88 837.29,-545.88 837.29,-545.88 833.33,-545.88 829.38,-541.92 829.38,-537.96 829.38,-537.96 829.38,-530.04 829.38,-530.04 829.38,-526.08 833.33,-522.13 837.29,-522.13 837.29,-522.13 982.21,-522.13 982.21,-522.13 986.17,-522.13 990.12,-526.08 990.12,-530.04 990.12,-530.04 990.12,-537.96 990.12,-537.96 990.12,-541.92 986.17,-545.88 982.21,-545.88"/>
<text xml:space="preserve" text-anchor="middle" x="909.75" y="-528.58" font-family="Arial" font-size="14.00" fill="#cfffac">Middleware/validation.ts</text>
</g>
<!-- Routes/authRouter.ts -->
<g id="node34" class="node">
<title>Routes/authRouter.ts</title>
<path fill="none" stroke="#c6c5fe" d="M707.83,-545.88C707.83,-545.88 580.92,-545.88 580.92,-545.88 576.96,-545.88 573,-541.92 573,-537.96 573,-537.96 573,-530.04 573,-530.04 573,-526.08 576.96,-522.13 580.92,-522.13 580.92,-522.13 707.83,-522.13 707.83,-522.13 711.79,-522.13 715.75,-526.08 715.75,-530.04 715.75,-530.04 715.75,-537.96 715.75,-537.96 715.75,-541.92 711.79,-545.88 707.83,-545.88"/>
<text xml:space="preserve" text-anchor="middle" x="644.38" y="-528.58" font-family="Arial" font-size="14.00" fill="#c6c5fe">Routes/authRouter.ts</text>
</g>
<!-- Routes/authRouter.ts&#45;&gt;Controllers/authControllers.ts -->
<g id="edge79" class="edge">
<title>Routes/authRouter.ts&#45;&gt;Controllers/authControllers.ts</title>
<path fill="none" stroke="#757575" d="M670.15,-521.68C717.33,-498.21 820.16,-447.06 874.12,-420.22"/>
<polygon fill="#757575" stroke="#757575" points="875.48,-423.46 882.87,-415.87 872.36,-417.19 875.48,-423.46"/>
</g>
<!-- Routes/authRouter.ts&#45;&gt;Middleware/auth.ts -->
<g id="edge80" class="edge">
<title>Routes/authRouter.ts&#45;&gt;Middleware/auth.ts</title>
<path fill="none" stroke="#757575" d="M716.09,-545.99C734.92,-549.82 755.12,-554.52 773.5,-560 807.46,-570.14 844.79,-585.37 871.61,-597.07"/>
<polygon fill="#757575" stroke="#757575" points="870.11,-600.23 880.67,-601.07 872.94,-593.83 870.11,-600.23"/>
</g>
<!-- Routes/authRouter.ts&#45;&gt;Middleware/validation.ts -->
<g id="edge81" class="edge">
<title>Routes/authRouter.ts&#45;&gt;Middleware/validation.ts</title>
<path fill="none" stroke="#757575" d="M715.95,-534C747.3,-534 784.59,-534 817.98,-534"/>
<polygon fill="#757575" stroke="#757575" points="817.63,-537.5 827.63,-534 817.63,-530.5 817.63,-537.5"/>
</g>
<!-- Routes/courtAvailabilityRouter.ts -->
<g id="node35" class="node">
<title>Routes/courtAvailabilityRouter.ts</title>
<path fill="none" stroke="#c6c5fe" d="M471.33,-820.88C471.33,-820.88 276.92,-820.88 276.92,-820.88 272.96,-820.88 269,-816.92 269,-812.96 269,-812.96 269,-805.04 269,-805.04 269,-801.08 272.96,-797.13 276.92,-797.13 276.92,-797.13 471.33,-797.13 471.33,-797.13 475.29,-797.13 479.25,-801.08 479.25,-805.04 479.25,-805.04 479.25,-812.96 479.25,-812.96 479.25,-816.92 475.29,-820.88 471.33,-820.88"/>
<text xml:space="preserve" text-anchor="middle" x="374.12" y="-803.58" font-family="Arial" font-size="14.00" fill="#c6c5fe">Routes/courtAvailabilityRouter.ts</text>
</g>
<!-- Routes/courtAvailabilityRouter.ts&#45;&gt;Controllers/courtAvailabilityControllers.ts -->
<g id="edge82" class="edge">
<title>Routes/courtAvailabilityRouter.ts&#45;&gt;Controllers/courtAvailabilityControllers.ts</title>
<path fill="none" stroke="#757575" d="M460.39,-821.31C466.97,-823.71 473.34,-826.58 479.25,-830 500.24,-842.15 497.81,-854.15 515.25,-871 548.77,-903.4 591.21,-936.87 617.83,-957.06"/>
<polygon fill="#757575" stroke="#757575" points="615.58,-959.74 625.67,-962.96 619.79,-954.15 615.58,-959.74"/>
</g>
<!-- Routes/courtAvailabilityRouter.ts&#45;&gt;Utils/courtAvailabilityHelpers.ts -->
<g id="edge84" class="edge">
<title>Routes/courtAvailabilityRouter.ts&#45;&gt;Utils/courtAvailabilityHelpers.ts</title>
<path fill="none" stroke="#757575" d="M467.98,-821.24C472.04,-823.73 475.84,-826.63 479.25,-830 533.29,-883.33 471.39,-935.02 515.25,-997 594.11,-1108.45 751.84,-1164.71 841.81,-1188.84"/>
<polygon fill="#757575" stroke="#757575" points="840.68,-1192.16 851.24,-1191.31 842.45,-1185.39 840.68,-1192.16"/>
</g>
<!-- Routes/courtAvailabilityRouter.ts&#45;&gt;Middleware/auth.ts -->
<g id="edge83" class="edge">
<title>Routes/courtAvailabilityRouter.ts&#45;&gt;Middleware/auth.ts</title>
<path fill="none" stroke="#757575" d="M466.6,-796.86C471.13,-794.36 475.39,-791.43 479.25,-788 517.69,-753.82 476.17,-711.45 515.25,-678 518.27,-675.42 719.56,-643.59 833.03,-625.82"/>
<polygon fill="#757575" stroke="#757575" points="833.56,-629.28 842.9,-624.27 832.48,-622.36 833.56,-629.28"/>
</g>
<!-- Routes/courtPricingRouter.ts -->
<g id="node36" class="node">
<title>Routes/courtPricingRouter.ts</title>
<path fill="none" stroke="#c6c5fe" d="M460.08,-862.88C460.08,-862.88 288.17,-862.88 288.17,-862.88 284.21,-862.88 280.25,-858.92 280.25,-854.96 280.25,-854.96 280.25,-847.04 280.25,-847.04 280.25,-843.08 284.21,-839.13 288.17,-839.13 288.17,-839.13 460.08,-839.13 460.08,-839.13 464.04,-839.13 468,-843.08 468,-847.04 468,-847.04 468,-854.96 468,-854.96 468,-858.92 464.04,-862.88 460.08,-862.88"/>
<text xml:space="preserve" text-anchor="middle" x="374.12" y="-845.58" font-family="Arial" font-size="14.00" fill="#c6c5fe">Routes/courtPricingRouter.ts</text>
</g>
<!-- Routes/courtPricingRouter.ts&#45;&gt;Controllers/courtPricingControllers.ts -->
<g id="edge85" class="edge">
<title>Routes/courtPricingRouter.ts&#45;&gt;Controllers/courtPricingControllers.ts</title>
<path fill="none" stroke="#757575" d="M377.47,-863.28C386.79,-909.14 425.2,-1072.73 515.25,-1169 536.8,-1192.04 568.07,-1208.61 594.33,-1219.5"/>
<polygon fill="#757575" stroke="#757575" points="592.86,-1222.69 603.45,-1223.13 595.45,-1216.18 592.86,-1222.69"/>
</g>
<!-- Routes/courtPricingRouter.ts&#45;&gt;Utils/courtPricingHelpers.ts -->
<g id="edge87" class="edge">
<title>Routes/courtPricingRouter.ts&#45;&gt;Utils/courtPricingHelpers.ts</title>
<path fill="none" stroke="#757575" d="M375.13,-863.05C375.88,-918.35 386.8,-1149.65 515.25,-1257 596.69,-1325.06 721.96,-1333.43 809.21,-1329.22"/>
<polygon fill="#757575" stroke="#757575" points="809.16,-1332.73 818.95,-1328.68 808.77,-1325.74 809.16,-1332.73"/>
</g>
<!-- Routes/courtPricingRouter.ts&#45;&gt;Middleware/auth.ts -->
<g id="edge86" class="edge">
<title>Routes/courtPricingRouter.ts&#45;&gt;Middleware/auth.ts</title>
<path fill="none" stroke="#757575" d="M467.18,-838.69C471.5,-836.23 475.57,-833.35 479.25,-830 520.13,-792.82 473.54,-747.24 515.25,-711 602.92,-634.82 661.76,-702.68 773.5,-671 809.21,-660.88 848.07,-643.82 874.93,-631"/>
<polygon fill="#757575" stroke="#757575" points="876.13,-634.31 883.6,-626.8 873.08,-628.01 876.13,-634.31"/>
</g>
<!-- Routes/courtRouter.ts -->
<g id="node37" class="node">
<title>Routes/courtRouter.ts</title>
<path fill="none" stroke="#c6c5fe" d="M709.71,-743.88C709.71,-743.88 579.04,-743.88 579.04,-743.88 575.08,-743.88 571.12,-739.92 571.12,-735.96 571.12,-735.96 571.12,-728.04 571.12,-728.04 571.12,-724.08 575.08,-720.13 579.04,-720.13 579.04,-720.13 709.71,-720.13 709.71,-720.13 713.67,-720.13 717.62,-724.08 717.62,-728.04 717.62,-728.04 717.62,-735.96 717.62,-735.96 717.62,-739.92 713.67,-743.88 709.71,-743.88"/>
<text xml:space="preserve" text-anchor="middle" x="644.38" y="-726.58" font-family="Arial" font-size="14.00" fill="#c6c5fe">Routes/courtRouter.ts</text>
</g>
<!-- Routes/courtRouter.ts&#45;&gt;Controllers/courtControllers.ts -->
<g id="edge88" class="edge">
<title>Routes/courtRouter.ts&#45;&gt;Controllers/courtControllers.ts</title>
<path fill="none" stroke="#757575" d="M717.95,-741.4C853.38,-758.95 1145.12,-796.75 1302.93,-817.19"/>
<polygon fill="#757575" stroke="#757575" points="1302.19,-820.63 1312.56,-818.44 1303.09,-813.68 1302.19,-820.63"/>
</g>
<!-- Routes/courtRouter.ts&#45;&gt;Middleware/auth.ts -->
<g id="edge89" class="edge">
<title>Routes/courtRouter.ts&#45;&gt;Middleware/auth.ts</title>
<path fill="none" stroke="#757575" d="M718.09,-724.85C736.9,-720.99 756.6,-715.07 773.5,-706 793.43,-695.3 791.48,-683.69 809.5,-670 829.13,-655.09 853.17,-641.43 872.67,-631.33"/>
<polygon fill="#757575" stroke="#757575" points="874.01,-634.58 881.34,-626.93 870.84,-628.33 874.01,-634.58"/>
</g>
<!-- Routes/courtRouter.ts&#45;&gt;Middleware/validateRequest.ts -->
<g id="edge90" class="edge">
<title>Routes/courtRouter.ts&#45;&gt;Middleware/validateRequest.ts</title>
<path fill="none" stroke="#757575" d="M718.04,-720.69C749.09,-715.85 785.67,-710.16 818.44,-705.06"/>
<polygon fill="#757575" stroke="#757575" points="818.55,-708.58 827.89,-703.59 817.47,-701.67 818.55,-708.58"/>
</g>
<!-- Routes/customerRouter.ts -->
<g id="node38" class="node">
<title>Routes/customerRouter.ts</title>
<path fill="none" stroke="#c6c5fe" d="M452.58,-778.88C452.58,-778.88 295.67,-778.88 295.67,-778.88 291.71,-778.88 287.75,-774.92 287.75,-770.96 287.75,-770.96 287.75,-763.04 287.75,-763.04 287.75,-759.08 291.71,-755.13 295.67,-755.13 295.67,-755.13 452.58,-755.13 452.58,-755.13 456.54,-755.13 460.5,-759.08 460.5,-763.04 460.5,-763.04 460.5,-770.96 460.5,-770.96 460.5,-774.92 456.54,-778.88 452.58,-778.88"/>
<text xml:space="preserve" text-anchor="middle" x="374.12" y="-761.58" font-family="Arial" font-size="14.00" fill="#c6c5fe">Routes/customerRouter.ts</text>
</g>
<!-- Routes/customerRouter.ts&#45;&gt;Controllers/customerControllers.ts -->
<g id="edge91" class="edge">
<title>Routes/customerRouter.ts&#45;&gt;Controllers/customerControllers.ts</title>
<path fill="none" stroke="#757575" d="M457.83,-779.3C465.26,-781.71 472.51,-784.57 479.25,-788 498.6,-797.84 496.02,-810.93 515.25,-821 525.77,-826.51 537.31,-830.97 549.02,-834.6"/>
<polygon fill="#757575" stroke="#757575" points="547.77,-837.88 558.34,-837.27 549.7,-831.15 547.77,-837.88"/>
</g>
<!-- Routes/notificationRouter.ts -->
<g id="node39" class="node">
<title>Routes/notificationRouter.ts</title>
<path fill="none" stroke="#c6c5fe" d="M456.71,-429.88C456.71,-429.88 291.54,-429.88 291.54,-429.88 287.58,-429.88 283.62,-425.92 283.62,-421.96 283.62,-421.96 283.62,-414.04 283.62,-414.04 283.62,-410.08 287.58,-406.13 291.54,-406.13 291.54,-406.13 456.71,-406.13 456.71,-406.13 460.67,-406.13 464.62,-410.08 464.62,-414.04 464.62,-414.04 464.62,-421.96 464.62,-421.96 464.62,-425.92 460.67,-429.88 456.71,-429.88"/>
<text xml:space="preserve" text-anchor="middle" x="374.12" y="-412.58" font-family="Arial" font-size="14.00" fill="#c6c5fe">Routes/notificationRouter.ts</text>
</g>
<!-- Routes/notificationRouter.ts&#45;&gt;Controllers/notificationControllers.ts -->
<g id="edge92" class="edge">
<title>Routes/notificationRouter.ts&#45;&gt;Controllers/notificationControllers.ts</title>
<path fill="none" stroke="#757575" d="M398.93,-405.67C446.75,-380.88 554.61,-324.99 609.67,-296.47"/>
<polygon fill="#757575" stroke="#757575" points="611.01,-299.71 618.28,-292 607.79,-293.5 611.01,-299.71"/>
</g>
<!-- Routes/notificationRouter.ts&#45;&gt;Utils/notificationHelpers.ts -->
<g id="edge94" class="edge">
<title>Routes/notificationRouter.ts&#45;&gt;Utils/notificationHelpers.ts</title>
<path fill="none" stroke="#757575" d="M382.94,-406.05C402.31,-377.22 455.27,-302.96 515.25,-258 616.52,-182.09 660.72,-195.44 773.5,-138 789.81,-129.69 792.51,-124.82 809.5,-118 819.38,-114.04 830.05,-110.51 840.61,-107.42"/>
<polygon fill="#757575" stroke="#757575" points="841.38,-110.84 850.07,-104.78 839.5,-104.1 841.38,-110.84"/>
</g>
<!-- Routes/notificationRouter.ts&#45;&gt;Middleware/auth.ts -->
<g id="edge93" class="edge">
<title>Routes/notificationRouter.ts&#45;&gt;Middleware/auth.ts</title>
<path fill="none" stroke="#757575" d="M383.26,-430.05C402.54,-457.5 453.98,-524.63 515.25,-555 619.2,-606.52 658.79,-575.66 773.5,-593 792.85,-595.93 813.74,-599.14 833.18,-602.16"/>
<polygon fill="#757575" stroke="#757575" points="832.53,-605.6 842.94,-603.68 833.6,-598.68 832.53,-605.6"/>
</g>
<!-- Routes/paymentRouter.ts -->
<g id="node40" class="node">
<title>Routes/paymentRouter.ts</title>
<path fill="none" stroke="#c6c5fe" d="M450.71,-194.88C450.71,-194.88 297.54,-194.88 297.54,-194.88 293.58,-194.88 289.62,-190.92 289.62,-186.96 289.62,-186.96 289.62,-179.04 289.62,-179.04 289.62,-175.08 293.58,-171.13 297.54,-171.13 297.54,-171.13 450.71,-171.13 450.71,-171.13 454.67,-171.13 458.62,-175.08 458.62,-179.04 458.62,-179.04 458.62,-186.96 458.62,-186.96 458.62,-190.92 454.67,-194.88 450.71,-194.88"/>
<text xml:space="preserve" text-anchor="middle" x="374.12" y="-177.58" font-family="Arial" font-size="14.00" fill="#c6c5fe">Routes/paymentRouter.ts</text>
</g>
<!-- Routes/paymentRouter.ts&#45;&gt;Controllers/paymentControllers.ts -->
<g id="edge95" class="edge">
<title>Routes/paymentRouter.ts&#45;&gt;Controllers/paymentControllers.ts</title>
<path fill="none" stroke="#757575" d="M415.07,-170.7C442.99,-162.33 481.21,-151.3 515.25,-143 531.8,-138.97 549.66,-135.06 566.64,-131.56"/>
<polygon fill="#757575" stroke="#757575" points="567.06,-135.04 576.16,-129.62 565.67,-128.18 567.06,-135.04"/>
</g>
<!-- Routes/paymentRouter.ts&#45;&gt;Utils/paymentHelpers.ts -->
<g id="edge97" class="edge">
<title>Routes/paymentRouter.ts&#45;&gt;Utils/paymentHelpers.ts</title>
<path fill="none" stroke="#757575" d="M390.55,-170.9C415.37,-152.02 466.38,-115.69 515.25,-96 615.04,-55.8 737.17,-33.57 818.66,-22.23"/>
<polygon fill="#757575" stroke="#757575" points="818.94,-25.73 828.38,-20.91 818,-18.79 818.94,-25.73"/>
</g>
<!-- Routes/paymentRouter.ts&#45;&gt;Middleware/auth.ts -->
<g id="edge96" class="edge">
<title>Routes/paymentRouter.ts&#45;&gt;Middleware/auth.ts</title>
<path fill="none" stroke="#757575" d="M389.83,-195.33C415.32,-216.69 469.4,-261.95 515.25,-300 629.74,-395.01 667.3,-408.8 773.5,-513 791.05,-530.22 790.68,-539.18 809.5,-555 828.88,-571.3 853.29,-585.87 873.06,-596.46"/>
<polygon fill="#757575" stroke="#757575" points="871.38,-599.54 881.87,-601.07 874.63,-593.33 871.38,-599.54"/>
</g>
<!-- Routes/reservationRouter.ts -->
<g id="node41" class="node">
<title>Routes/reservationRouter.ts</title>
<path fill="none" stroke="#c6c5fe" d="M728.08,-625.88C728.08,-625.88 560.67,-625.88 560.67,-625.88 556.71,-625.88 552.75,-621.92 552.75,-617.96 552.75,-617.96 552.75,-610.04 552.75,-610.04 552.75,-606.08 556.71,-602.13 560.67,-602.13 560.67,-602.13 728.08,-602.13 728.08,-602.13 732.04,-602.13 736,-606.08 736,-610.04 736,-610.04 736,-617.96 736,-617.96 736,-621.92 732.04,-625.88 728.08,-625.88"/>
<text xml:space="preserve" text-anchor="middle" x="644.38" y="-608.58" font-family="Arial" font-size="14.00" fill="#c6c5fe">Routes/reservationRouter.ts</text>
</g>
<!-- Routes/reservationRouter.ts&#45;&gt;Controllers/reservationControllers.ts -->
<g id="edge98" class="edge">
<title>Routes/reservationRouter.ts&#45;&gt;Controllers/reservationControllers.ts</title>
<path fill="none" stroke="#757575" d="M735.76,-601.67C840.26,-587.08 999.38,-563.67 1010,-555 1044.98,-526.45 1021.44,-497.89 1046,-460 1070.75,-421.83 1110.11,-386.29 1135.66,-365.36"/>
<polygon fill="#757575" stroke="#757575" points="1137.62,-368.27 1143.22,-359.28 1133.23,-362.82 1137.62,-368.27"/>
</g>
<!-- Routes/reservationRouter.ts&#45;&gt;Middleware/auth.ts -->
<g id="edge99" class="edge">
<title>Routes/reservationRouter.ts&#45;&gt;Middleware/auth.ts</title>
<path fill="none" stroke="#757575" d="M736.38,-614C767.89,-614 802.85,-614 833,-614"/>
<polygon fill="#757575" stroke="#757575" points="832.79,-617.5 842.79,-614 832.79,-610.5 832.79,-617.5"/>
</g>
<!-- Routes/reservationRouter.ts&#45;&gt;Middleware/validateRequest.ts -->
<g id="edge100" class="edge">
<title>Routes/reservationRouter.ts&#45;&gt;Middleware/validateRequest.ts</title>
<path fill="none" stroke="#757575" d="M687.69,-626.37C733.38,-639.73 806.26,-661.04 855.74,-675.5"/>
<polygon fill="#757575" stroke="#757575" points="854.51,-678.79 865.09,-678.24 856.47,-672.07 854.51,-678.79"/>
</g>
<!-- Utils/testHelpers.ts -->
<g id="node42" class="node">
<title>Utils/testHelpers.ts</title>
<path fill="none" stroke="#cfffac" d="M121.33,-862.88C121.33,-862.88 8.67,-862.88 8.67,-862.88 4.71,-862.88 0.75,-858.92 0.75,-854.96 0.75,-854.96 0.75,-847.04 0.75,-847.04 0.75,-843.08 4.71,-839.13 8.67,-839.13 8.67,-839.13 121.33,-839.13 121.33,-839.13 125.29,-839.13 129.25,-843.08 129.25,-847.04 129.25,-847.04 129.25,-854.96 129.25,-854.96 129.25,-858.92 125.29,-862.88 121.33,-862.88"/>
<text xml:space="preserve" text-anchor="middle" x="65" y="-845.58" font-family="Arial" font-size="14.00" fill="#cfffac">Utils/testHelpers.ts</text>
</g>
<!-- Utils/timedToken.ts -->
<g id="node43" class="node">
<title>Utils/timedToken.ts</title>
<path fill="none" stroke="#cfffac" d="M122.08,-904.88C122.08,-904.88 7.92,-904.88 7.92,-904.88 3.96,-904.88 0,-900.92 0,-896.96 0,-896.96 0,-889.04 0,-889.04 0,-885.08 3.96,-881.13 7.92,-881.13 7.92,-881.13 122.08,-881.13 122.08,-881.13 126.04,-881.13 130,-885.08 130,-889.04 130,-889.04 130,-896.96 130,-896.96 130,-900.92 126.04,-904.88 122.08,-904.88"/>
<text xml:space="preserve" text-anchor="middle" x="65" y="-887.58" font-family="Arial" font-size="14.00" fill="#cfffac">Utils/timedToken.ts</text>
</g>
<!-- index.ts -->
<g id="node44" class="node">
<title>index.ts</title>
<path fill="none" stroke="#c6c5fe" d="M88.33,-820.88C88.33,-820.88 41.67,-820.88 41.67,-820.88 37.71,-820.88 33.75,-816.92 33.75,-812.96 33.75,-812.96 33.75,-805.04 33.75,-805.04 33.75,-801.08 37.71,-797.13 41.67,-797.13 41.67,-797.13 88.33,-797.13 88.33,-797.13 92.29,-797.13 96.25,-801.08 96.25,-805.04 96.25,-805.04 96.25,-812.96 96.25,-812.96 96.25,-816.92 92.29,-820.88 88.33,-820.88"/>
<text xml:space="preserve" text-anchor="middle" x="65" y="-803.58" font-family="Arial" font-size="14.00" fill="#c6c5fe">index.ts</text>
</g>
<!-- index.ts&#45;&gt;Config/db.ts -->
<g id="edge105" class="edge">
<title>index.ts&#45;&gt;Config/db.ts</title>
<path fill="none" stroke="#757575" d="M96.49,-818.96C148.81,-835.99 251.76,-869.12 269,-872 483.09,-907.72 742.94,-899.99 854.07,-894.32"/>
<polygon fill="#757575" stroke="#757575" points="853.99,-897.83 863.79,-893.81 853.62,-890.84 853.99,-897.83"/>
</g>
<!-- server.ts -->
<g id="node45" class="node">
<title>server.ts</title>
<path fill="none" stroke="#c6c5fe" d="M225.08,-738.88C225.08,-738.88 173.92,-738.88 173.92,-738.88 169.96,-738.88 166,-734.92 166,-730.96 166,-730.96 166,-723.04 166,-723.04 166,-719.08 169.96,-715.13 173.92,-715.13 173.92,-715.13 225.08,-715.13 225.08,-715.13 229.04,-715.13 233,-719.08 233,-723.04 233,-723.04 233,-730.96 233,-730.96 233,-734.92 229.04,-738.88 225.08,-738.88"/>
<text xml:space="preserve" text-anchor="middle" x="199.5" y="-721.58" font-family="Arial" font-size="14.00" fill="#c6c5fe">server.ts</text>
</g>
<!-- index.ts&#45;&gt;server.ts -->
<g id="edge106" class="edge">
<title>index.ts&#45;&gt;server.ts</title>
<path fill="none" stroke="#757575" d="M85.84,-796.72C107.89,-783.08 143.73,-760.9 169.05,-745.22"/>
<polygon fill="#757575" stroke="#757575" points="170.58,-748.4 177.24,-740.16 166.9,-742.44 170.58,-748.4"/>
</g>
<!-- server.ts&#45;&gt;Routes/authRouter.ts -->
<g id="edge107" class="edge">
<title>server.ts&#45;&gt;Routes/authRouter.ts</title>
<path fill="none" stroke="#757575" d="M203.55,-715C210.53,-690.12 230.15,-632.93 269,-605 355.06,-543.13 480.03,-530.89 561.5,-530.4"/>
<polygon fill="#757575" stroke="#757575" points="561.19,-533.9 571.19,-530.4 561.19,-526.9 561.19,-533.9"/>
</g>
<!-- server.ts&#45;&gt;Routes/courtAvailabilityRouter.ts -->
<g id="edge108" class="edge">
<title>server.ts&#45;&gt;Routes/courtAvailabilityRouter.ts</title>
<path fill="none" stroke="#757575" d="M210.3,-738.93C222.52,-752.97 244.78,-775.9 269,-788 272.53,-789.76 276.2,-791.38 279.95,-792.86"/>
<polygon fill="#757575" stroke="#757575" points="278.72,-796.14 289.32,-796.18 281.06,-789.54 278.72,-796.14"/>
</g>
<!-- server.ts&#45;&gt;Routes/courtPricingRouter.ts -->
<g id="edge109" class="edge">
<title>server.ts&#45;&gt;Routes/courtPricingRouter.ts</title>
<path fill="none" stroke="#757575" d="M204.92,-739.13C213.58,-761.05 234.95,-807.13 269,-830 270.97,-831.33 273.01,-832.57 275.1,-833.74"/>
<polygon fill="#757575" stroke="#757575" points="273.36,-836.79 283.88,-838.02 276.43,-830.49 273.36,-836.79"/>
</g>
<!-- server.ts&#45;&gt;Routes/courtRouter.ts -->
<g id="edge110" class="edge">
<title>server.ts&#45;&gt;Routes/courtRouter.ts</title>
<path fill="none" stroke="#757575" d="M233.43,-727.37C301.78,-728.14 460.93,-729.94 559.61,-731.06"/>
<polygon fill="#757575" stroke="#757575" points="559.48,-734.55 569.52,-731.17 559.56,-727.55 559.48,-734.55"/>
</g>
<!-- server.ts&#45;&gt;Routes/customerRouter.ts -->
<g id="edge111" class="edge">
<title>server.ts&#45;&gt;Routes/customerRouter.ts</title>
<path fill="none" stroke="#757575" d="M233.38,-734.62C254.68,-739.56 283.14,-746.15 308.82,-752.1"/>
<polygon fill="#757575" stroke="#757575" points="308,-755.5 318.53,-754.35 309.58,-748.68 308,-755.5"/>
</g>
<!-- server.ts&#45;&gt;Routes/notificationRouter.ts -->
<g id="edge112" class="edge">
<title>server.ts&#45;&gt;Routes/notificationRouter.ts</title>
<path fill="none" stroke="#757575" d="M203.34,-715.05C210.92,-684.56 233.48,-601.95 269,-541 292.36,-500.92 329.14,-461.16 352.16,-438.12"/>
<polygon fill="#757575" stroke="#757575" points="354.51,-440.72 359.17,-431.2 349.6,-435.73 354.51,-440.72"/>
</g>
<!-- server.ts&#45;&gt;Routes/paymentRouter.ts -->
<g id="edge113" class="edge">
<title>server.ts&#45;&gt;Routes/paymentRouter.ts</title>
<path fill="none" stroke="#757575" d="M201.93,-714.73C207.29,-670.73 228,-517.17 269,-397 294.01,-323.68 338.24,-242.97 360.12,-205.02"/>
<polygon fill="#757575" stroke="#757575" points="363.14,-206.79 365.14,-196.39 357.09,-203.27 363.14,-206.79"/>
</g>
<!-- server.ts&#45;&gt;Routes/reservationRouter.ts -->
<g id="edge114" class="edge">
<title>server.ts&#45;&gt;Routes/reservationRouter.ts</title>
<path fill="none" stroke="#757575" d="M208.32,-714.9C219.57,-698.63 241.97,-670.23 269,-657 354.13,-615.32 462.8,-607.05 541.11,-607.71"/>
<polygon fill="#757575" stroke="#757575" points="540.88,-611.21 550.92,-607.85 540.97,-604.21 540.88,-611.21"/>
</g>
<!-- test&#45;server.ts -->
<g id="node46" class="node">
<title>test&#45;server.ts</title>
<path fill="none" stroke="#c6c5fe" d="M412.83,-689.88C412.83,-689.88 335.42,-689.88 335.42,-689.88 331.46,-689.88 327.5,-685.92 327.5,-681.96 327.5,-681.96 327.5,-674.04 327.5,-674.04 327.5,-670.08 331.46,-666.13 335.42,-666.13 335.42,-666.13 412.83,-666.13 412.83,-666.13 416.79,-666.13 420.75,-670.08 420.75,-674.04 420.75,-674.04 420.75,-681.96 420.75,-681.96 420.75,-685.92 416.79,-689.88 412.83,-689.88"/>
<text xml:space="preserve" text-anchor="middle" x="374.12" y="-672.58" font-family="Arial" font-size="14.00" fill="#c6c5fe">test&#45;server.ts</text>
</g>
<!-- test&#45;server.ts&#45;&gt;Config/db.ts -->
<g id="edge115" class="edge">
<title>test&#45;server.ts&#45;&gt;Config/db.ts</title>
<path fill="none" stroke="#757575" d="M394.91,-690.28C421.49,-706.37 470.57,-734.7 515.25,-753 625.96,-798.36 661.44,-787.08 773.5,-829 808.74,-842.19 847.67,-860.44 874.67,-873.72"/>
<polygon fill="#757575" stroke="#757575" points="872.89,-876.75 883.41,-878.06 876,-870.48 872.89,-876.75"/>
</g>
<!-- test&#45;server.ts&#45;&gt;Routes/authRouter.ts -->
<g id="edge116" class="edge">
<title>test&#45;server.ts&#45;&gt;Routes/authRouter.ts</title>
<path fill="none" stroke="#757575" d="M393.77,-665.75C420.25,-648.58 470.52,-616.76 515.25,-593 544.3,-577.57 578.13,-562.09 603.74,-550.86"/>
<polygon fill="#757575" stroke="#757575" points="605.01,-554.12 612.78,-546.92 602.21,-547.7 605.01,-554.12"/>
</g>
</g>
</svg>
